<svg width="83" height="25" viewBox="0 0 83 25" fill="none" xmlns="http://www.w3.org/2000/svg">
<g id="Logo">
<path id="Subtract" fill-rule="evenodd" clip-rule="evenodd" d="M18.0545 4.18323C18.3591 5.02137 18.4941 5.90303 18.4565 6.80475L18.4557 6.80504C18.4167 7.73801 18.1934 8.64639 17.7923 9.50381L12.4396 20.9826L12.4371 20.988L12.4346 20.9934C11.4791 22.8507 10.0721 24.129 8.36701 24.6895C6.84357 25.1906 5.18101 25.0821 3.68808 24.3859C2.19515 23.6898 1.04494 22.4867 0.449844 20.9984C-0.216246 19.3321 -0.141438 17.4326 0.6664 15.5058L6.02406 4.01621C7.6128 0.609166 11.5462 -0.931473 14.7919 0.582046C16.3095 1.2897 17.4681 2.56848 18.0545 4.18323ZM10.9244 14.224C8.20355 13.1392 6.04392 8.95368 6.04783 6.11501C5.99318 6.23222 5.94098 6.35089 5.88878 6.46956C5.77107 6.73718 5.65335 7.00482 5.50737 7.25584C4.48317 9.75444 6.1399 12.8345 7.84094 14.6611C8.11994 15.029 8.51277 15.379 8.91399 15.7364C9.83554 16.5574 10.8013 17.4178 10.5334 18.6259C9.95439 22.0067 6.09614 24.6999 2.94527 22.6122C5.66756 25.1336 10.1593 23.7737 11.6592 20.536C13.1902 17.2615 14.7182 13.9845 16.2459 10.7083C16.4369 10.2986 16.628 9.88894 16.819 9.4793C16.5319 9.86644 16.2439 10.3269 15.9429 10.8083C14.7385 12.7342 13.3254 14.9939 10.9244 14.224ZM15.4186 9.4591C16.5941 8.47021 17.5969 7.12683 17.4631 5.51109L17.4639 5.5108L17.5133 5.50707C17.9055 7.46253 16.6048 9.1426 15.3727 10.5089C11.817 14.5456 9.49906 10.831 8.39325 7.17672C8.34774 7.05116 8.30321 6.92522 8.25868 6.79931C7.99809 6.06238 7.73784 5.32643 7.28556 4.67368C7.0375 4.2305 7.23244 3.68794 7.38541 3.41024C7.58676 3.0442 8.17257 2.32378 8.58303 2.24379C9.45422 2.07397 11.2504 3.04462 11.0311 4.8147C10.8839 6.34315 10.8357 7.98555 11.6764 9.34311C12.5687 10.8741 14.3063 10.5656 15.4186 9.4591ZM6.76845 21.7626C4.77022 23.2231 1.98822 21.963 1.30195 19.7035L1.30167 19.7027C1.30979 19.6999 1.31778 19.6972 1.32577 19.6944C1.33377 19.6916 1.34176 19.6888 1.34988 19.686C1.79592 20.5595 2.46419 21.376 3.46734 21.6018C4.53254 21.8819 5.81624 21.3003 5.93595 20.1244C6.01986 19.1883 5.59426 18.3647 5.17449 17.5524C5.04052 17.2932 4.90714 17.0351 4.79111 16.7749C3.98644 15.1484 3.36373 13.2883 3.55029 11.4612C3.66772 11.2211 3.77761 10.9768 3.88746 10.7326C4.06537 10.3371 4.24319 9.94179 4.45286 9.56481C4.15781 12.4949 5.52916 14.4922 7.03323 16.6828C7.23466 16.9761 7.43848 17.273 7.64099 17.576C8.51431 18.9462 8.17587 20.8877 6.76845 21.7626ZM10.4469 1.19222C10.4468 1.19221 10.4468 1.1922 10.4467 1.19219L10.447 1.19298C10.447 1.19272 10.4469 1.19247 10.4469 1.19222ZM13.0366 6.19392C13.1068 4.02479 13.1868 1.5506 10.4469 1.19222C10.4466 1.18349 10.446 1.17483 10.4454 1.16617C10.4449 1.15726 10.4443 1.14834 10.4439 1.13936C10.5655 1.11825 10.6891 1.09318 10.8135 1.06793C11.5381 0.92088 12.2925 0.767797 12.8662 1.35489C13.9323 2.12121 14.1968 3.3482 14.4588 4.5633C14.5702 5.07965 14.681 5.59386 14.8527 6.06965C15.0997 6.81044 16.0899 6.70853 16.4528 6.10662C17.1774 5.1319 16.9236 4.11064 16.4595 3.09963C17.9891 4.86848 17.1484 7.84667 14.8433 8.41647C13.6171 8.72084 13.0086 7.28367 13.0338 6.27965C13.0347 6.25113 13.0357 6.22255 13.0366 6.19392ZM1.82343 18.7684C1.21011 17.62 1.32468 16.2173 1.89453 15.0777L1.89557 15.0769L1.87413 15.0669C1.90292 15.0278 1.94557 14.9428 1.997 14.8405C2.17521 14.4857 2.45871 13.9214 2.63499 14.3251C2.9095 15.5328 3.26851 16.7159 3.64802 17.8943C4.4334 19.8798 2.81092 20.5219 1.82343 18.7684Z" fill="#C2E812"/>
<g id="GreenPill">
<path d="M32.3422 19.651L31.6866 18.365C31.2075 19.0585 30.4637 19.6762 29.0768 19.6762C26.5804 19.6762 24.8784 17.7094 24.8784 15.1248C24.8784 12.162 26.883 10.1699 29.3668 10.1699C30.1611 10.1699 30.6528 10.2834 31.3588 10.8381L31.8757 10.2077H32.2918L32.8213 13.7253L32.3801 13.7758C31.6488 11.9602 30.8545 10.7121 29.392 10.7121C27.9421 10.7121 27.0217 12.2376 27.0217 15.0618C27.0217 18.1759 27.9421 19.0711 29.2155 19.0711C30.4132 19.0711 31.0184 18.1633 31.0184 16.9277V16.3982C31.0184 16.1334 30.9049 15.9191 30.5645 15.9065L29.5559 15.8687V15.2761H33.6282V15.8687L32.6953 15.9191V16.2973C32.6953 17.4951 32.7205 18.3146 32.8087 19.651H32.3422Z" fill="#C2E812"/>
<path d="M34.281 19.4493V18.9324L35.1761 18.8819V15.0744C35.1761 14.6709 35.0375 14.4944 34.4953 14.4944H34.0162V13.9775C34.7223 13.9649 35.3779 13.6749 35.8696 13.3597H36.4621L36.5252 15.3644L36.5882 15.377C36.9665 14.0279 37.6221 13.3093 38.555 13.3093C39.2107 13.3093 39.6141 13.8892 39.6141 14.4314C39.6141 15.0113 39.2485 15.5283 38.7316 15.5283C38.2272 15.5283 37.8994 15.1122 37.8994 14.6835C37.8994 14.3053 38.1138 14.2044 38.1138 14.0784C38.1138 14.0405 38.0759 14.0153 38.0381 14.0153C37.3951 14.0153 36.6513 15.9443 36.6513 17.5707V18.4533C36.6513 18.7811 36.7899 18.8819 37.0799 18.8946L38.139 18.9324V19.4493H34.281Z" fill="#C2E812"/>
<path d="M40.4094 16.5369C40.4094 14.6331 41.8467 13.2841 43.4227 13.2841C45.213 13.2841 46.1334 14.6205 46.1334 16.0956L42.2249 16.8269C42.2249 17.8607 42.5275 18.945 43.8765 18.945C44.6456 18.945 45.3643 18.4281 45.7173 17.4573L46.1586 17.659C45.856 18.655 44.8347 19.6762 43.4857 19.6762C41.708 19.6762 40.4094 18.4155 40.4094 16.5369ZM44.1287 15.9443C44.3809 15.8939 44.5322 15.7552 44.5322 15.5283C44.5322 14.6709 44.343 13.7758 43.5235 13.7758C42.4897 13.7758 42.2249 14.9357 42.2249 16.2973L44.1287 15.9443Z" fill="#C2E812"/>
<path d="M47.0915 16.5369C47.0915 14.6331 48.5288 13.2841 50.1048 13.2841C51.8951 13.2841 52.8155 14.6205 52.8155 16.0956L48.9071 16.8269C48.9071 17.8607 49.2097 18.945 50.5587 18.945C51.3278 18.945 52.0464 18.4281 52.3995 17.4573L52.8407 17.659C52.5381 18.655 51.5169 19.6762 50.1679 19.6762C48.3902 19.6762 47.0915 18.4155 47.0915 16.5369ZM50.8109 15.9443C51.063 15.8939 51.2143 15.7552 51.2143 15.5283C51.2143 14.6709 51.0252 13.7758 50.2057 13.7758C49.1718 13.7758 48.9071 14.9357 48.9071 16.2973L50.8109 15.9443Z" fill="#C2E812"/>
<path d="M57.7956 19.4493V18.9324L58.4764 18.8819V15.8813C58.4764 15.0239 58.1991 14.4188 57.43 14.4188C56.7239 14.4188 56.2701 15.087 56.2701 16.2091V18.5037C56.2701 18.8315 56.3709 18.8819 56.6609 18.8946L57.3039 18.9324V19.4493H53.925V18.9324L54.6563 18.8819V15.0744C54.6563 14.6709 54.5176 14.4944 53.9754 14.4944H53.4963V13.9775C54.2024 13.9649 55.1227 13.6749 55.6145 13.3597H56.1944L56.2448 14.734C56.7366 13.7632 57.5056 13.3597 58.2621 13.3597C59.422 13.3597 60.0776 14.154 60.0776 15.4652V18.4785C60.0776 18.7685 60.1533 18.8819 60.4685 18.8946L61.1997 18.9324V19.4493H57.7956Z" fill="#C2E812"/>
<path d="M61.9234 19.4493V18.8567L63.0707 18.8063V11.4055C63.0707 11.1407 62.932 10.9894 62.7303 10.9768L61.583 10.939V10.3464H66.2983C68.2904 10.3464 69.9042 11.0273 69.9042 12.9563C69.9042 14.6709 68.593 15.5913 66.1849 15.5913C65.8192 15.5913 65.2771 15.5787 64.9493 15.5535V18.365C64.9493 18.6928 65.1384 18.8063 65.4158 18.8189L66.5757 18.8567V19.4493H61.9234ZM67.8617 12.9058C67.8617 11.0399 66.7648 10.8886 65.7562 10.8886L64.9493 10.9012V14.9609H65.6679C67.0548 14.9609 67.8617 14.7087 67.8617 12.9058Z" fill="#C2E812"/>
<path d="M71.3636 11.2416C71.3636 10.6616 71.7923 10.2077 72.347 10.2077C72.9018 10.2077 73.3557 10.6616 73.3557 11.2416C73.3557 11.8089 72.9018 12.2628 72.347 12.2628C71.7923 12.2628 71.3636 11.8089 71.3636 11.2416ZM70.8215 19.4493V18.9324L71.6158 18.8819V15.0744C71.6158 14.6709 71.4771 14.4944 70.935 14.4944H70.4559V13.9775C71.1619 13.9649 72.0823 13.6749 72.574 13.3597H73.2296V18.5037C73.2296 18.8315 73.3304 18.8819 73.6204 18.8946L74.4273 18.9324V19.4493H70.8215Z" fill="#C2E812"/>
<path d="M75.0409 19.4493V18.9324L75.8478 18.8819V11.9098C75.8478 11.5064 75.7091 11.3298 75.167 11.3298H74.6879V10.8129C75.3939 10.8003 76.3143 10.5103 76.806 10.1951H77.4238V18.4911C77.4238 18.8189 77.5246 18.8819 77.8146 18.8946L78.6467 18.9324V19.4493H75.0409Z" fill="#C2E812"/>
<path d="M79.2359 19.4493V18.9324L80.0429 18.8819V11.9098C80.0429 11.5064 79.9042 11.3298 79.362 11.3298H78.8829V10.8129C79.589 10.8003 80.5093 10.5103 81.001 10.1951H81.6188V18.4911C81.6188 18.8189 81.7197 18.8819 82.0097 18.8946L82.8418 18.9324V19.4493H79.2359Z" fill="#C2E812"/>
</g>
</g>
</svg>
