<svg width="320" height="400" viewBox="0 0 320 400" fill="none" xmlns="http://www.w3.org/2000/svg">
<path d="M338.806 74.3642C332.78 70.4426 326.718 66.4672 322.541 60.4771C317.982 53.2622 314.401 45.3652 310.045 38.0021C306.644 33.7979 303.386 31.541 299.393 36.4317C287.404 50.2335 251.683 63.3308 249.996 34.7446C250.526 20.9024 256.251 7.1904 240.74 -0.388014C232.448 -4.55188 218.574 -8.72921 212.418 0.643976C205.957 11.4126 199.132 21.9658 188.027 28.445C174.836 36.9701 171.255 43.9922 178.443 58.6106C182.966 68.1722 177.353 77.8415 174.881 87.1699C166.885 106.464 184.819 123.424 172.386 141.318C162.142 158.606 166.239 179.897 159.122 198.378C152.392 216.429 162.977 233.017 171.645 248.286C181.463 263.766 158.212 273.283 145.877 268.419C139.349 266.427 132.703 265.314 125.937 264.403C121.369 263.784 116.883 261.882 112.598 260.002C101.246 254.308 89.0142 256.785 76.8995 256.964C71.4659 257 66.27 258.019 61.7247 260.993C52.7554 266.862 43.3867 267.244 33.6635 263.452C12.9608 257.745 -1.08323 237.249 -1.71589 216.043C-1.68449 198.221 -4.49778 179.511 2.50182 162.604C5.00103 156.601 4.03185 152.163 -0.948646 147.977C-10.8423 139.164 -17.3035 125.784 -14.7639 112.472C-12.2288 103.238 -10.241 96.4443 -20.1437 90.0639L-20.1437 86.0257C-7.03739 95.3226 -5.08106 93.6893 -10.407 109.901C-15.5311 123.164 -8.31617 139.007 3.51138 146.285C6.30673 147.869 9.2008 149.273 12.0276 150.799C21.4726 155.42 0.599358 158.256 0.222434 181.068C-0.30253 189.674 0.258352 198.351 0.419882 206.993C0.231435 221.289 2.38515 235.418 11.5519 246.707C20.961 260.096 43.6783 270.115 58.4897 260.872C69.6846 253.312 83.603 256.116 96.3773 254.752C109.161 254.308 119.714 263.282 132.551 263.273C144.818 264.933 158.023 272.588 168.599 261.801C175.441 255.12 167.894 246.99 165.198 240.179C158.934 227.409 151.997 213.504 157.494 199.195C164.57 180.229 161.308 159.041 170.407 140.829C173.997 133.713 176.563 125.699 173.768 117.842C172.642 112.97 171.363 108.101 170.708 103.161C168.235 87.0891 183.28 71.838 175.248 56.3357C173.691 52.8449 172.646 49.2194 172.74 45.2844C173.261 29.3199 197.827 26.2868 206.267 7.46859C207.868 4.60144 209.632 1.82404 211.449 -0.912987C218.399 -11.8252 235.535 -5.63323 244.37 -0.123286C258.005 8.65314 252.307 21.2614 251.863 34.5606C252.836 57.6863 279.906 50.3636 291.343 39.7924C297.118 35.0138 299.42 25.6047 293.573 19.9826C284.33 10.1832 279.659 -2.84236 280.476 -16.2717C281.225 -16.2717 281.97 -16.2717 282.719 -16.2717C283.047 -5.32363 284.649 6.21674 293.38 13.8535C297.881 17.9859 300.586 17.7975 303.606 12.6286C309.026 3.35857 314.926 -5.70502 317.717 -16.2717C318.166 -16.2717 318.615 -16.2717 319.063 -16.2717C316.721 -10.3849 314.424 -4.48457 312.019 1.37535C307.918 11.1165 301.013 21.6832 309.367 31.3166C319.544 45.5402 320.97 64.1071 338.806 72.1207L338.806 74.3642Z" fill="#1B5930"/>
<path d="M-20.1482 157.821C-14.4857 169.442 -12.7627 182.171 -12.6909 194.946C-13.0005 210.089 -20.9559 227.014 -8.02006 239.263C10.161 260.401 14.9485 264.803 42.3188 271.986C48.8742 273.799 55.5058 273.763 61.9266 271.25C69.1506 268.424 76.72 267.235 84.3029 265.848C100.142 261.927 112.423 272.381 126.888 276.401C138.855 279.385 151.562 284.406 163.708 279.645C177.802 275.984 190.63 264.103 203.552 276.653C207.532 280.121 211.808 283.329 216.259 286.165C227.71 293.214 245.132 290.706 250.023 277.052C251.791 273.512 253.577 269.976 255.448 266.485C258.943 256.708 279.386 247.577 271.785 241.435C261.685 232.201 239.779 239.779 227.095 241.089C220.692 242.404 214.505 244.778 208.218 246.671C201.932 248.695 194.78 251.396 188.884 247.012C150.346 220.346 169.581 205.939 172.318 169.24C173.158 151.409 187.655 144.163 193.748 129.679C199.236 116.429 188.341 107.455 191.253 95.0802C193.483 87.3358 196.238 79.7215 199.455 72.327C203.781 63.8736 197.876 56.7484 193.69 49.7219C188.943 41.3313 198.796 35.1214 203.83 29.7595C210.3 24.4381 213.549 16.227 219.988 11.0401C224.165 8.19538 228.513 9.16007 232.668 11.5292C236.665 13.8085 237.379 17.4205 236.782 21.5664C235.943 27.4039 235.055 33.2324 234.252 39.0744C233.022 48.0303 237.72 53.612 244.962 57.7266C259.998 67.0997 275.913 60.6117 291.801 58.2336C298.459 57.3945 304.05 60.1719 309.242 63.9768C319.292 71.2232 329.199 78.6491 338.806 86.4788C338.806 87.5242 338.806 88.5742 338.806 89.6196C333.556 82.5662 326.184 78.0793 319.086 73.2468C307.918 65.4171 298.751 56.6632 284.133 60.8898C267.064 66.4447 247.358 66.2472 234.068 52.6698C226.574 44.1491 232.789 31.4018 233.233 21.3152C234.768 14.4636 224.69 9.42929 220.055 14.4098C213.257 22.7869 205.975 30.8095 198.594 38.6616C189.548 50.0315 209.695 56.4971 203.678 69.8592C201.057 77.0158 198.253 84.1052 196.359 91.5041C192.326 111.161 207.846 119.179 188.453 141.515C178.6 150.696 173.683 163.102 172.92 176.424C172.26 194.448 158.593 214.787 172.902 230.554C180.924 240.138 193.304 252.1 206.522 245.567C217.349 241.381 228.54 239.021 240.013 237.639C251.163 236.275 263.385 231.707 273.535 238.913C288.413 250.283 260.325 252.235 252.343 275.63C251.185 278.205 249.817 280.727 248.246 283.069C238.59 296.7 217.897 291.576 207.222 281.817C204.669 279.641 201.928 277.671 199.141 275.796C195.112 273.086 190.706 271.941 185.945 273.584C174.463 276.994 163.434 283.634 151.199 283.379C143.109 282.45 134.996 280.404 127.135 278.268C117.771 275.535 109.089 270.663 99.9219 267.535C87.8566 264.794 75.3515 269.554 63.681 272.439C48.9101 277.595 34.0943 271.25 20.3822 265.942C6.49068 259.575 -2.66716 246.465 -12.9153 235.624C-21.3507 226.466 -16.5497 213.791 -14.8267 202.955C-12.7582 190.172 -16.3568 177.568 -19.1252 165.188C-20.552 163.003 -20.1033 160.369 -20.1392 157.834L-20.1482 157.821Z" fill="#1B5930"/>
<path d="M338.806 581.387C324.039 587.952 310.045 576.752 294.892 578.157C277.788 577.955 255.811 575.958 247.506 558.423C243.782 547.448 241.731 535.953 235.804 525.817C231.663 517.561 229.276 508.959 229.792 499.703C230.312 490.361 229.141 477.066 226.476 468.362C225.52 465.782 222.031 463.722 219.08 468.942C213.463 478.88 214.11 499.303 206.11 507.407C194.466 516.91 177.815 506.33 173.054 494.17C170.748 487.512 172.57 480.171 172.211 473.266C172.713 454.277 149.547 471.79 137.451 461.438C124.685 452.253 130.249 434.099 129.271 420.625C130.281 404.688 118.52 391.595 106.195 383.034C96.6824 377.295 85.4785 375.523 75.0509 372.077C69.5141 370.336 64.0714 369.887 58.6288 372.229C45.1501 377.941 30.4644 382.643 21.993 395.498C8.30343 415.954 -18.0483 435.809 -10.2859 463.188C-5.10349 484.362 9.6495 512.728 -20.1527 522.151L-20.1527 520.805C15.9402 507.734 -18.829 469.941 -12.4845 444.774C-6.42713 424.609 10.2149 409.789 21.8136 392.699C30.1682 380.624 44.6027 376.223 57.4802 370.591C63.3356 368.124 69.1596 368.317 75.1721 370.484C87.3945 375.366 101.784 376.048 111.673 385.515C116.923 390.311 121.796 395.476 125.695 401.475C138.729 419.27 116.829 459.886 148.147 463.287C177.864 460.034 174.715 459.54 174.176 488.342C173.543 504.764 201.555 519.315 208.268 499.608C209.861 494.48 210.991 489.203 212.212 483.967C214.419 477.546 213.226 468.209 219.404 464.077C223.595 461.793 228.235 463.596 229.235 468.258C231.371 481.472 232.52 494.772 232.668 508.116C234.032 519.903 240.116 530.829 244.141 541.898C247.259 554.928 250.014 566.495 263.91 571.704C278.784 578.291 295.247 574.702 310.763 577.712C320.033 580.589 329.285 583.097 338.801 579.583C338.801 580.18 338.801 580.781 338.801 581.378L338.806 581.387Z" fill="#1B5930"/>
<path d="M-20.1481 541.005C-2.27219 537.666 20.2297 523.03 19.1529 502.767C16.546 491.128 10.7444 480.198 7.70675 468.666C5.43188 458.871 7.20419 447.627 15.7473 441.296C20.0233 437.572 24.4654 434.036 28.7684 430.335C39.0838 421.572 41.076 406.787 51.8311 398.383C59.091 392.227 67.2168 389.005 76.8996 391.496C91.2667 395.031 110.202 397.064 112.88 414.944C112.113 461.106 109.466 452.379 131.124 494.381C141.17 510.336 120.961 522.958 133.982 534.826C147.654 544.123 144.666 510.368 170.596 520.661C176.689 522.747 181.566 526.835 185.995 531.246C191.922 537.141 198.065 542.602 205.63 546.308C209.762 548.332 212.669 551.437 214.173 555.91C216.353 562.407 221.293 566.674 226.66 570.439C239.331 579.301 252.159 587.929 264.749 596.907C269.824 600.349 275.383 602.601 281.463 603.638C300.546 606.953 319.979 612.652 338.81 605.172C338.81 605.621 338.81 606.07 338.81 606.518C326.521 610.696 313.549 611.674 300.811 608.982C286.444 606.164 270.973 605.168 259.508 595.121C242.997 580.117 219.503 573.481 206.585 554.815C201.165 547.744 193.398 542.18 187.471 535.409C179.798 526.978 167.706 516.21 155.721 522.711C149.687 526.359 147.842 533.852 143.032 538.68C140.067 541.664 136.571 541.947 133.471 539.044C126.072 532.116 124.43 526.772 127.597 517.596C132.412 508.286 131.295 499.173 126.597 490.177C106.774 449.543 111.669 458.589 111.539 416.282C110.439 397.988 89.6694 396.185 75.6208 392.6C66.6246 390.477 59.1852 393.955 52.5042 399.55C36.1673 415.38 44.6925 421.518 19.7003 440.479C8.96756 447.874 5.19854 460.895 10.1297 472.983C12.6693 479.843 15.33 486.69 18.4843 493.282C30.3343 517.888 1.61797 538.882 -20.1347 542.355L-20.1347 541.009L-20.1481 541.005Z" fill="#1B5930"/>
<path d="M-20.1481 316.209C-8.72437 310.21 3.57877 312.247 15.4287 315.595C22.711 317.187 29.9753 318.879 37.2711 320.418C48.2461 320.858 59.4276 318.444 70.075 322.841C85.0793 328.907 92.8192 345.729 109.048 349.588C125.771 353.828 128.638 373.646 143.203 381.018C147.156 383.19 151.463 384.792 155.748 386.25C163.614 389.728 171.56 376.563 178.277 384.747C184.092 393.506 168.581 393.9 165.835 399.971C162.99 405.544 163.968 414.222 172.045 415.927C190.684 420.45 188.494 418.7 205.136 411.723C216.95 407.81 229.114 413.401 240.735 415.698C254.183 419.13 259.796 432.905 267.957 442.741C279.305 458.234 283.06 417.865 280.628 411.624C279.668 406.235 281.746 402.439 286.74 400.169C295.287 396.983 304.45 395.027 310.808 387.937C319.503 380.265 326.525 369.142 338.81 367.36L338.81 368.706C324.798 371.901 317.183 385.052 306.5 393.429C301.439 397.239 294.996 399.473 289.176 402.071C282.019 405.046 283.922 412.974 283.967 419.117C283.505 429.729 282.024 440.466 278.91 450.624C273.364 460.886 266.791 444.737 263.264 440.596C259.989 435.777 256.897 430.828 253.478 426.121C245.527 414.886 230.047 415.388 217.865 412.382C210.525 411.189 203.826 413.858 197.638 417.6C189.409 423.164 180.391 420.844 171.448 418.866C163.838 417.461 161.501 412.53 161.142 405.961C160.54 400.33 163.174 392.904 156.403 390.329C122.478 376.321 131.407 358.05 104.261 349.368C87.0132 343.373 78.7527 321.019 58.5974 321.621C53.0965 321.531 47.5821 321.692 42.0901 322.06C20.8804 323.321 0.0161746 305.759 -20.1391 318.897L-20.1391 316.205L-20.1481 316.209Z" fill="#1B5930"/>
<path d="M338.806 547.735C330.182 551.818 318.224 545.617 317.897 535.858C317.098 523.227 304.979 516.95 297.459 508.362C286.502 494.942 264.65 511.584 260.792 489.512C257.736 470.241 258.391 449.493 245.491 433.471C239.663 424.856 228.724 424.609 219.35 424.622C204.714 426.126 199.814 444.006 182.41 438.9C178.641 438.02 174.818 437.244 170.972 436.845C159.962 436.665 150.49 439.129 148.605 425.138C147.914 420.647 147.587 416.093 147.281 411.556C145.787 393.708 126.624 382.836 116.389 369.433C106.859 358.597 90.5712 358.723 82.3242 346.42C66.0816 324.25 54.4649 329.473 32.0931 338.146C26.4575 340.075 18.8881 339.232 15.1101 344.603C9.88733 356.812 7.54965 370.214 -1.80561 380.363C-6.48545 385.734 -12.1973 392.42 -20.1527 390.239L-20.1527 387.098C-7.81809 390.176 -0.0736409 375.356 4.95172 366.337C8.1105 359.804 9.25018 352.877 9.49249 345.706C8.97198 335.736 20.804 337.266 27.6825 336.163C47.4339 333.354 62.51 320.315 78.9142 339.864C84.8728 346.891 90.5308 354.797 99.8816 357.354C108.577 360.446 115.46 365.723 121.334 372.893C131.232 386.089 148.798 395.386 149.103 413.656C150.584 444.589 162.066 430.101 183.177 437.083C202.13 441.978 206.316 417.385 228.643 423.196C259.091 426.318 258.162 466.669 263.426 489.49C267.989 506.931 287.121 491.787 297.97 505.329C304.912 513.517 322.168 524.582 322.379 534.969C322.074 543.032 333.247 549.799 338.806 541.897L338.806 547.73L338.806 547.735Z" fill="#1B5930"/>
<path d="M338.806 567.029C331.9 568.666 325.161 567.576 318.426 565.898C302.632 562.308 286.686 570.174 270.869 564.983C262.465 562.932 256.942 557.714 254.752 549.489C251.768 536.226 247.178 523.039 246.38 509.417C246.169 498.881 246.003 488.35 245.944 477.815C246.393 469.514 246.837 460.976 243.741 453.101C235.571 434.274 211.637 446.532 199.357 454.129C186.466 460.814 178.134 445.81 162.663 450.665C159.306 451.396 155.959 452.217 152.581 452.818C133.933 455.398 137.54 429.563 137.406 417.659C137.949 409.331 134.915 402.426 129.639 396.346C119.274 384.9 109.546 371.246 93.5102 367.984C81.7499 365.848 74.4004 356.821 65.9829 349.247C58.3372 342.696 52.2574 351.629 46.8461 356.403C36.4903 364.341 23.7788 369.774 16.1555 380.741C3.29602 397.885 -7.99756 416.21 -20.1527 433.767L-20.1527 430.626C-8.66162 414.617 1.53717 397.724 12.9654 381.665C19.1977 372.601 27.5479 365.943 37.0108 360.558C44.2976 356.861 48.3089 349.31 55.2681 345.227C62.4517 341.081 69.5769 348.403 73.7811 353.918C85.4516 369.241 106.572 365.633 118.273 382.073C122.446 386.95 126.893 391.59 131.151 396.395C147.905 409.605 127.526 454.277 153.42 451.028C157.171 450.369 160.895 449.539 164.61 448.708C178.34 445.029 188.741 459.275 201.986 450.521C206.356 448.089 210.736 445.653 215.263 443.535C225.524 438.869 241.825 439.892 245.24 452.527C249.274 464.749 247.475 477.878 247.726 490.536C247.596 507.205 249.139 523.654 253.792 539.735C255.865 550.764 259.953 561.842 272.399 563.803C288.413 568.716 304.463 559.621 320.36 564.287C326.435 566.046 332.6 566.001 338.806 565.238L338.806 567.033L338.806 567.029Z" fill="#1B5930"/>
<path d="M338.806 597.091C329.872 600.815 320.822 601.376 311.723 597.845C302.91 594.426 293.703 593.057 284.366 592.366C267.679 590.666 253.155 580.198 241.085 569.165C228.737 555.735 235.849 534.638 213.316 528.033C201.735 526.373 190.553 523.568 180.669 517.085C170.16 510.749 157.498 506.182 152.477 494.022C147.169 480.925 133.596 475.276 125.435 464.399C108.317 440.847 140.102 403.077 94.4928 387.956C88.1213 386.336 81.7454 384.729 75.3515 383.204C57.3365 379.857 41.4528 394.188 31.7925 407.873C23.1776 422.254 5.6561 429.199 0.280759 445.747C-7.58036 468.339 15.6665 490.361 6.27532 512.535C0.769861 523.524 -8.3386 530.007 -20.1392 532.928L-20.1392 531.582C-2.58637 527.499 12.0904 510.467 5.92535 491.967C3.25561 482.63 0.37054 473.337 -1.76972 463.874C-6.62906 446.263 4.4581 432.107 17.4971 421.495C23.5365 415.954 28.508 409.511 33.2911 402.911C37.0782 398.019 41.6836 393.442 46.8712 389.739C59.1363 380.983 75.4127 380.925 89.9399 384.933C104.489 388.946 117.611 396.718 121.199 412.566C124.075 439.008 112.333 460.469 141.421 476.581C146.249 479.511 149.808 483.478 152.365 488.44C155.937 495.238 158.956 503.009 166.073 506.81C179.17 513.796 191.666 524.363 207.097 524.744C219.997 525.354 227.512 532.785 232.371 543.782C235.93 554.362 237.015 566.069 247.102 572.866C259.822 583.469 274.854 590.661 291.617 591.168C307.815 592.12 322.828 603.925 338.819 595.305L338.819 597.1L338.806 597.091Z" fill="#1B5930"/>
<path d="M338.806 127.309C330.563 116.711 328.719 102.923 322.272 91.4814C317.556 84.1497 309.897 80.2461 302.211 76.5713C295.193 73.2151 288.063 73.0895 280.848 75.5573C270.825 78.9853 260.451 80.7756 250.041 82.4537C244.764 83.3286 238.68 84.9888 236.755 90.575C231.568 105.211 220.333 116.065 212.759 129.333C205.284 142.619 189.853 150.206 185.519 165.287C182.683 179.501 180.741 193.976 177.164 208.056C174.611 221.948 190.486 235.588 204.05 234.412C222.141 230.948 240.138 225.928 258.185 222.037C268.944 219.772 279.238 224.505 289.75 225.932C309.147 226.785 309.838 209.573 338.806 210.322C338.806 211.368 338.806 212.417 338.806 213.463C322.604 211.928 316.605 215.935 304.032 224.99C293.676 231.559 282.055 225.762 271.224 223.864C263.722 222.432 256.359 223.684 249.049 225.501C235.607 228.719 222.141 231.841 208.739 235.229C196.629 238.558 186.071 231.819 178.937 222.504C170.335 210.268 180.189 193.9 181.526 180.48C182.903 155.025 194.322 149.924 209.143 131.918C214.316 123.855 219.526 115.675 225.314 107.975C233.915 98.0817 229.437 82.8889 241.929 81.0089C254.694 79.4071 267.607 77.6975 279.911 73.8702C294.444 68.6698 307.375 76.2842 318.534 84.8856C330.99 94.5145 328.827 112.637 338.81 124.164C338.81 125.21 338.81 126.26 338.81 127.305L338.806 127.309Z" fill="#1B5930"/>
<path d="M-20.1481 302.3C5.7998 300.2 30.2984 310.987 55.9143 312.907C84.2402 313.347 92.3212 334.467 117.058 338.725C127.037 340.865 136.392 346.563 146.896 343.862C153.245 342.61 159.015 343.871 164.79 346.859C174.531 351.903 184.626 356.273 194.43 361.204C203.741 366.086 213.782 371.6 216.542 382.557C219.983 395.933 232.991 405.894 247.071 404.108C252.877 403.651 255.461 398.1 258.346 393.793C266.028 380.668 281.858 383.509 294.713 382.059C307.738 381.149 314.334 369.474 321.468 360.145C325.439 354.178 332.367 354.303 338.81 353.904C338.81 354.501 338.81 355.102 338.81 355.699C335.499 356.161 332.102 356.304 328.899 357.166C319.588 360.406 315.411 374.571 305.926 379.888C296.754 385.833 285.304 383.652 274.984 385.308C255.897 386.614 261.128 409.847 241.354 405.93C206.168 399.186 223.142 376.769 198.056 365.05C188.813 360.509 179.345 356.435 169.976 352.15C161.891 347.829 153.406 344.787 144.253 347.214C140.044 348.089 135.997 347.201 132.21 345.621C125.08 342.646 117.78 340.322 110.246 338.644C88.1035 331.905 84.6351 314.877 55.2233 313.957C29.7824 312.4 5.62482 301.178 -20.1391 304.099L-20.1391 302.304L-20.1481 302.3Z" fill="#1B5930"/>
<path d="M338.806 195.062C327.351 200.218 315.573 204.489 303.7 208.545C282.827 217.977 275.343 197.252 259.755 208.088C249.53 215.083 238.16 219.166 225.946 221.176C214.891 222.805 202.197 229.553 192.433 220.853C189.234 218.04 186.924 214.522 187.202 210.134C187.982 198.764 190.208 187.488 191.087 176.136C191.725 154.451 213.091 144.387 223.618 127.785C230.231 117.232 240.69 110.358 250.122 102.6C267.594 87.6812 300.245 73.4307 315.927 98.7728C323.384 113.719 327.732 130.531 338.81 143.463C338.81 144.508 338.81 145.558 338.81 146.603C329.751 134.776 323.743 121.382 318.651 107.504C316.627 101.99 313.944 96.8749 309.282 93.0027C283.325 73.3948 253.684 102.053 233.704 117.941C230.985 120.189 228.782 123.168 226.736 126.089C217.924 139.406 204.481 148.627 196.189 162.281C193.726 165.987 193.183 170.371 192.608 174.674C191.567 191.428 178.811 225.878 207.379 223.388C225.722 220.593 244.181 217.053 259.325 205.602C263.942 201.77 269.335 199.123 275.06 202.421C282.392 206.006 290.374 210.677 298.661 207.801C312.032 202.789 326.88 200.415 338.81 192.366C338.81 193.263 338.81 194.16 338.81 195.058L338.806 195.062Z" fill="#1B5930"/>
<path d="M338.806 342.234C322.626 335.885 316.887 344.289 309.295 357.139C304.144 365.727 298.931 370.21 288.552 370.062C269.097 370.497 262.685 372.969 247.762 385.263C238.846 392.514 233.457 381.562 229.59 374.683C225.139 366.88 218.511 361.595 210.287 358.36C199.882 354.268 190.675 348.224 181.795 341.583C172.655 334.458 163.69 326.121 151.261 330.002C143.934 331.662 136.463 333.789 128.961 331.918C116.838 329.527 104.113 328.01 94.0037 320.288C85.3529 314.222 75.7419 310.771 65.3278 309.6C36.5486 305.809 8.83737 296.709 -20.1482 294.224L-20.1482 292.877C9.90527 294.784 38.5543 306.307 68.6077 308.99C78.1873 310.516 87.1207 313.804 95.0716 319.449C103.377 325.345 112.943 327.557 122.733 329.186C130.761 330.873 139.147 332.313 147.053 329.325C170.331 320.284 183.581 345.662 202.897 353.437C207.222 355.475 211.673 357.247 216.003 359.266C231.833 365.045 234.839 390.414 246.398 383.132C269.891 366.149 268.541 370.47 295.538 366.678C299.653 366.041 302.753 363.502 305.037 360.078C313.998 346.317 319.602 332.582 338.801 339.99C338.801 340.739 338.801 341.484 338.801 342.234L338.806 342.234Z" fill="#1B5930"/>
<path d="M338.806 269.096C330.936 265.951 323.079 266.907 315.33 269.424C302.251 274.405 288.777 270.245 275.383 272.067C260.213 276.424 263.704 299.482 233.7 300.958C209.048 303.444 201.641 285.016 183.455 288.363C150.53 294.717 143.342 301.936 111.736 283.863C95.2825 273.974 76.6124 281.386 58.9653 282.871C43.279 283.648 28.4138 275.706 13.9121 270.667C1.34869 264.52 -7.17648 251.947 -20.1482 246.218L-20.1482 244.423C-2.98569 253.15 10.4176 268.098 27.7274 273.882C41.1702 278.373 54.6489 283.939 68.859 280.125C82.6473 277.864 97.6202 274.158 110.43 281.781C141.269 299.047 150.283 294.367 182.571 286.896C204.387 282.723 211.96 306.441 241.951 298.306C263.3 294.12 260.141 268.477 280.234 268.679C291.774 268.486 303.539 270.483 314.738 266.884C322.675 264.816 331.035 262.613 338.806 266.409L338.806 269.101L338.806 269.096Z" fill="#1B5930"/>
<path d="M-20.148 279.416C-4.60086 285.052 10.4662 291.756 26.9153 294.398C41.0357 298.315 55.3175 301.277 69.927 302.708C79.7803 303.906 89.4272 305.53 98.0869 310.879C106.765 316.236 116.492 318.439 126.404 320.31C139.129 323.195 150.62 317.484 162.936 315.796C185.883 313.356 194.749 342.992 216.744 343.781C223.362 344.279 229.096 347.008 234.579 350.507C241.395 355.398 246.896 350.445 252.805 346.788C262.658 342.045 272.992 349.161 283.424 347.331C306.908 347.187 315.653 312.382 338.801 322.042C338.801 322.792 338.801 323.536 338.801 324.286C332.21 322.253 325.157 321.172 319.714 326.211C307.967 335.193 298.612 349.107 282.482 349.565C271.394 350.777 258.701 343.647 249.615 352.746C242.709 359.234 235.853 354.725 229.379 350.144C225.498 347.743 221.226 346.474 216.73 345.886C198.953 344.89 190.944 327.247 176.079 320.068C158.346 310.883 144.455 327.377 123.294 321.028C114.424 319.382 105.849 317.12 98.0286 312.333C88.6374 306.58 78.156 304.337 67.2842 303.641C55.8874 302.91 44.8855 300.209 33.9284 297.135C15.348 293.739 -2.24524 287.044 -20.157 281.211L-20.157 279.416L-20.148 279.416Z" fill="#1B5930"/>
<path d="M-20.1482 28.5976C-4.08055 26.4574 7.16816 42.0853 23.4288 37.8138C29.9752 36.6023 36.2031 34.7537 42.1079 31.7788C61.3613 21.3871 79.7846 38.0336 99.7245 35.8575C118.43 32.9993 149.507 77.5724 153.832 61.6977C157.426 49.5695 158.436 35.7991 168.805 27.1618C190.208 11.2242 197.764 13.369 203.749 -16.2761C204.346 -16.2761 204.947 -16.2761 205.544 -16.2761C203.915 -10.9995 202.399 -5.67801 200.626 -0.450737C188.453 29.4815 158.678 14.5401 158.005 61.9983C158.36 66.9564 151.122 81.5344 146.24 73.1797C139.326 59.4991 125.538 51.4854 114.038 42.0629C109.582 38.7829 104.117 37.6612 98.5399 37.5804C87.5515 38.4644 78.5955 36.0055 68.4416 32.0256C59.6562 29.0194 51.0952 29.3828 42.8796 33.8877C30.2803 39.8194 13.8806 44.5845 1.36657 36.3286C-5.06319 32.3038 -12.4666 29.2392 -20.1482 30.3834L-20.1482 28.5886L-20.1482 28.5976Z" fill="#1B5930"/>
<path d="M338.806 285.249C326.413 281.952 312.907 286.587 306.54 296.992C304.607 300.151 303.157 303.673 301.91 307.177C297.531 319.516 285.227 322.711 274.809 320.27C270.753 319.319 267.518 316.743 264.646 313.921C254.694 304.068 241.018 311.965 228.957 310.915C191.881 311.31 200.936 288.48 152.316 303.26C121.908 314.388 111.166 284.554 83.3652 288.628C56.5468 292.173 46.1775 288.92 21.0149 280.929C5.0549 276.774 -5.26056 262.595 -20.1482 256.529L-20.1482 254.734C-4.0401 261.505 6.54007 277.272 24.4115 280.727C39.0388 284.446 53.3207 291.204 68.7603 288.574C81.9024 288.372 96.6599 283.648 108.304 291.742C135.001 310.538 142.759 303.448 171.444 297.66C196.032 292.648 201.259 308.317 223.07 309.097C232.587 309.972 241.821 308.541 251.113 306.984C256.332 306.114 261.043 307.397 264.947 311.179C274.791 323.101 294.165 321.342 299.958 306.006C301.259 302.591 302.35 298.993 304.27 295.937C311.557 283.885 325.78 281.13 338.806 282.997L338.806 285.24L338.806 285.249Z" fill="#1B5930"/>
<path d="M338.806 302.3C332.856 301.322 325.686 300.29 321.433 305.607C307.559 325.174 292.182 342.592 266.571 332.367C258.629 328.548 250.49 326.215 241.713 328.467C233.727 329.634 225.309 327.521 217.282 327.987C191.101 329.019 192.182 299.45 156.668 310.161C137.787 318.152 116.932 313.723 100.173 302.784C95.287 299.765 89.7726 298.647 84.1325 298.302C75.2708 297.759 66.3733 297.656 57.5385 296.83C44.4816 295.04 31.8374 290.571 19.0138 287.56C4.35947 284.271 -6.75464 273.96 -20.1436 267.75L-20.1436 265.956C-13.0992 268.235 -7.42319 272.821 -1.53635 277.034C5.19852 281.853 12.7231 284.823 20.6605 286.905C42.1573 293.577 64.1567 297.606 86.7215 297.247C93.6448 297.584 99.7919 300.29 105.508 303.987C119.75 312.682 137.599 316.236 153.321 309.896C166.692 305.279 182.679 304.942 193.667 315.195C198.773 319.117 203.736 324.972 210.502 325.528C218.691 325.757 226.88 325.412 235.073 326.408C242.97 326.605 251.244 323.272 258.885 327.144C275.388 336.275 296.176 336.288 308.174 319.906C316.542 308.698 322.101 294.941 338.81 300.056C338.81 300.806 338.81 301.55 338.81 302.3L338.806 302.3Z" fill="#1B5930"/>
<path d="M-20.1482 18.7263C-1.93578 19.5384 16.4068 22.9126 34.4397 18.7756C51.8849 14.7329 58.8172 14.1182 76.213 19.3051C82.8447 21.1268 89.6065 21.8492 96.4042 21.3287C110.632 19.6192 120.319 29.2077 131.061 36.6426C149.054 49.372 155.726 19.5205 176.218 11.1793C189.737 4.39057 191.689 -2.17381 194.331 -16.2717C194.78 -16.2717 195.229 -16.2717 195.677 -16.2717C194.892 -5.35504 190.217 6.00137 179.704 10.7351C156.969 20.0096 149.624 49.2329 134.512 40.5507C123.196 34.8792 114.37 23.276 100.81 23.2401C79.6904 25.7259 59.7236 12.0228 38.9491 19.4577C19.579 25.7349 -0.365358 20.9877 -20.1437 20.0724L-20.1437 18.7263L-20.1482 18.7263Z" fill="#1B5930"/>
<path d="M186.699 -16.2717C183.338 2.72591 162.802 9.25888 148.96 19.507C132.941 30.0289 124.91 7.40578 105.665 8.40187C98.3695 8.02048 91.0647 7.7064 83.7959 7.02438C58.714 -0.473267 58.5794 3.0041 33.8609 8.12368C15.9132 8.84159 -2.16907 8.45122 -20.1437 7.95766L-20.1437 5.7142C-11.5826 6.75516 -2.83763 6.18084 5.78624 6.6071C20.5034 7.09617 35.3506 8.10573 49.4664 3.08935C57.1346 0.76961 65.4579 -1.28989 73.144 1.94967C96.3189 11.3722 111.48 -0.334176 132.196 17.286C137.787 21.0999 143.405 20.8351 149 17.3398C162.133 7.73332 182.378 2.12467 184.904 -16.2717L186.699 -16.2717Z" fill="#1B5930"/>
<path d="M140.932 -16.2716C143.463 -13.6647 146.137 -11.179 148.488 -8.41952C156.668 1.51005 171.466 -5.77672 174.584 -16.2716L176.379 -16.2716C173.104 -6.54847 164.354 -0.715467 154.124 -1.48273C144.989 -1.59939 142.462 -17.4427 132.672 -11.2328C110.7 -0.930841 93.4383 -0.719956 74.0727 -16.2761C75.5669 -16.2761 77.0655 -16.2761 78.5597 -16.2761C94.2684 -0.91738 117.098 -3.90118 133.749 -16.2761C136.14 -16.2761 138.536 -16.2761 140.928 -16.2761L140.932 -16.2716Z" fill="#1B5930"/>
<path d="M338.806 379.475C322.119 384.765 313.491 400.433 311.49 416.819C310.929 425.255 321.953 426.596 326.942 431.254C337.28 439.303 339.78 443.001 338.806 456.201C334.548 423.218 303.655 436.701 306.823 417.676C308.528 410.129 312.562 403.619 316.183 396.938C320.751 387.511 329.231 381.427 338.806 377.68C338.806 378.277 338.806 378.878 338.806 379.475Z" fill="#1B5930"/>
<path d="M-0.854458 -16.2717C4.08565 -9.89132 11.0224 -6.96585 18.5649 -5.18902C31.7745 -0.818756 47.1556 -4.38138 55.2321 -16.2717L58.8217 -16.2717C50.3055 -5.92488 37.5043 0.110038 24.0031 -2.42956C13.1627 -3.81602 1.53258 -7.1543 -5.34138 -16.2717L-0.854458 -16.2717Z" fill="#1B5930"/>
<path d="M328.037 -16.2717C326.592 -8.81446 324.6 -1.4918 322.734 5.85779C321.275 12.494 322.846 18.7712 325.547 24.7926C329.994 33.9504 333.511 43.7005 338.806 52.3782C338.806 53.5762 338.806 54.7698 338.806 55.9678C332.686 46.7247 329.154 35.983 324.152 26.1028C319.862 16.8687 319.862 7.51346 323.169 -1.99882C324.618 -6.6742 326.494 -11.3271 326.687 -16.2717C327.135 -16.2717 327.584 -16.2717 328.033 -16.2717L328.037 -16.2717Z" fill="#1B5930"/>
<path d="M29.9079 183.5C51.5708 185.514 55.6539 175.378 67.2257 159.862C76.6482 147.501 57.8794 142.162 50.2965 135.808C44.3244 131.209 34.7762 121.562 38.2087 113.486C42.0316 105.557 47.3531 98.755 54.0072 93.079C62.8464 85.4827 74.3868 93.0342 83.2978 96.8032C100.353 106.504 117.614 93.5905 133.834 88.2062C151.818 80.2958 149.139 79.3087 156.022 100.743C157.915 110.722 160.679 121.163 158.144 131.272C153.541 148.192 158.234 166.045 152.087 182.678C146.128 197.584 141.085 212.687 147.281 228.423C149.143 234.588 152.491 245.756 142.691 246.191C132.313 247.631 122.069 247.591 111.705 246.2C99.1591 245.415 86.7034 248.048 74.1939 246.433C67.1225 245.635 60.1857 246.146 53.6976 249.641C45.0872 255.981 31.2046 254.227 28.3599 242.655C22.5538 226.825 39.8958 214.127 25.0485 204.126C21.809 201.963 18.5515 199.913 16.8868 196.081C13.2075 185.308 21.3782 183.244 29.8944 183.239C29.8944 183.325 29.9034 183.414 29.9079 183.5ZM30.5765 235.57C28.8983 246.379 39.2227 255.066 49.0222 249.507C57.655 244.89 66.7007 243.929 76.3745 245.092C89.6962 246.707 103.188 242.821 116.519 244.764C124.874 246.101 133.049 244.558 141.193 243.059C149.193 241.803 145.639 232.196 144.508 226.848C135.409 202.56 156.83 181.364 154.2 157.09C152.226 143.508 158.194 130.81 157.166 117.299C155.134 106.926 154.716 83.6251 138.81 88.9735C132.394 90.9747 126.076 93.2899 119.732 95.5109C107.796 99.9485 95.0491 105.84 82.7863 98.7999C73.8125 94.9276 62.3798 88.3094 53.7425 96.3096C46.7518 103.009 38.3119 113.306 43.3687 123.37C50.1619 140.91 78.6628 142.844 72.4125 155.649C69.9133 160.733 66.1084 165.099 62.7926 169.662C55.5686 180.359 45.3609 189.198 31.6847 188.39C27.5298 188.139 17.9054 189.683 23.1327 195.426C26.9151 198.652 31.945 200.554 33.7397 205.656C35.9742 211.511 35.4403 217.264 33.1968 222.917C32.4687 224.752 31.4433 229.102 31.0082 231.857L30.5765 235.57Z" fill="#1B5930"/>
<path d="M28.0324 54.3657C37.0197 54.8368 47.3351 58.718 45.0872 70.0834C43.7815 76.9484 41.4348 83.2795 36.2255 88.3048C27.9651 95.2237 15.9984 95.7352 5.73682 94.0705C-0.0692613 92.8097 -1.80569 91.0598 -0.76024 85.3031C0.410849 78.8643 2.11139 72.475 4.19781 66.2695C7.73351 55.7342 18.0534 54.949 28.0324 54.3657ZM25.8472 56.5733L25.8113 56.8829C17.4701 56.0932 8.50972 59.2475 6.05537 67.6695C4.5702 74.9697 -1.68007 88.1209 8.59948 91.2707C17.5419 93.5994 27.4715 92.1187 34.7672 86.4966C39.1689 82.4628 40.9861 77.0785 42.3232 71.5192C45.0557 60.6923 34.9467 56.4028 25.8427 56.5733L25.8472 56.5733Z" fill="#1B5930"/>
<path d="M119.835 71.461C120.149 96.2961 84.7965 96.3365 86.2144 68.1182C87.3002 43.7183 121.432 48.8469 119.835 71.461ZM88.3995 69.0919C89.1847 72.484 89.7007 75.9659 90.818 79.2458C94.2909 91.8406 114.67 89.6285 116.86 77.7831C123.918 52.8941 91.1051 43.6106 88.404 69.0919L88.3995 69.0919Z" fill="#1B5930"/>
<path d="M99.8602 457.296C94.5279 441.379 104.743 417.276 89.5167 410.208C80.2333 405.69 70.0863 398.767 60.7939 406.982C50.0432 415.202 48.4793 429.888 44.5533 441.841C42.763 450.878 35.2205 454.921 27.7632 458.838C19.8467 462.996 25.0635 477.905 33.3284 482.572C37.2006 485.107 40.7932 485.723 45.1814 486.064C54.8328 485.961 60.7825 495.747 56.7712 504.411C55.3982 507.884 53.7829 511.258 52.4009 514.727C49.4485 522.148 50.7722 528.439 56.8026 533.536C63.174 539.93 70.8332 537.345 75.5579 529.722C85.5234 508.503 108.972 517.405 109.771 497.551C110.735 478.007 103.778 468.99 99.8602 457.296Z" fill="#1B5930"/>
<path d="M233.089 249.448C238.523 250.256 247.398 249.956 246.815 257.628C246.626 263.865 244.199 269.402 239.954 273.75C229.962 285.793 201.739 270.425 213.473 256.439C218.713 251.18 225.915 249.637 233.045 249.807C233.062 249.686 233.08 249.57 233.094 249.448L233.089 249.448ZM233.65 251.517C227.786 251.818 222.662 252.046 218.287 255.111C200.721 267.84 232.739 285.82 241.26 268.81C246.667 259.122 246.335 251.813 233.655 251.517L233.65 251.517Z" fill="#1B5930"/>
<path d="M332.125 163.488C332.053 177.976 326.368 192.873 310.013 194.147C304.432 195.027 299.334 193.613 294.659 190.598C282.894 184.433 263.964 171.43 254.277 186.838C243.189 207.805 233.067 209.026 210.866 211.135C198.603 212.167 199.918 197.243 200.241 188.848C201.901 163.299 203.776 161.944 221.554 144.284C230.173 135.485 238.128 125.959 248.821 119.552C265.09 108.169 290.894 82.6156 308.483 105.23C317.34 118.255 318.803 134.695 327.642 147.797C330.415 152.598 332.071 157.74 332.129 163.483L332.125 163.488ZM201.3 193.155C201.519 200.68 202.834 210.305 212.131 209.277C219.297 208.555 226.431 207.114 233.462 205.49C243.499 203.422 247.663 193.51 252.76 185.73C263.111 168.482 283.675 182.773 296.597 189.467C306.235 195.924 322.29 192.388 326.539 181.099C330.922 168.608 332.443 156.268 324.403 144.899C313.751 128.607 313.118 91.9708 285.797 98.5307C271.515 101.869 261.644 113.548 249.606 121.113C244.625 124.452 239.685 127.705 235.503 132.075C224.816 145.24 206.302 155.636 203.278 173.216C202.484 180.031 201.919 186.869 201.304 193.155L201.3 193.155Z" fill="#1B5930"/>
<path d="M144.257 153.931C145.913 162.654 145.078 171.053 141.063 179.035C128.836 201.542 119.723 233.363 90.5263 237.693C80.9063 239.304 71.8562 236.091 63.0663 232.829C51.8311 227.817 50.5029 211.153 54.9091 200.999C56.3269 198.087 58.1711 195.188 60.4594 192.931C66.3418 187.116 71.0171 180.381 76.1592 173.983C94.8652 154.111 100.514 155.129 95.1568 125.565C93.7524 110.13 117.991 102.762 130.352 102.138C142.193 101.546 146.64 110.403 146.317 120.445C145.708 127.744 141.727 143.464 144.257 153.931ZM144.693 120.203C147.614 90.6839 96.8798 106.316 97.8804 124.452C99.5181 141.022 102.022 150.611 89.0097 163.722C79.2192 172.112 72.5382 183.06 63.4522 192.137C57.359 198.046 53.8232 205.172 54.779 214.033C55.3309 225.69 62.7343 232.021 73.7586 234.651C85.5503 238.68 96.5074 236.688 105.988 228.93C123.191 212.943 135.117 191.294 142.651 169.222C144.253 163.093 143.064 156.91 142.072 150.79C139.746 139.479 143.494 130.992 144.693 120.203Z" fill="#1B5930"/>
<path d="M290.962 107.482C301.614 107.581 305.634 116.563 308.106 124.905C310.076 134.125 314.042 142.565 317.686 151.167C321.047 159.104 320.441 166.907 315.532 174.211C309.874 183.033 300.061 177.64 293.035 173.767C265.579 161.011 259.661 151.306 238.81 180.839C235.503 187.497 219.678 192.518 219.077 181.925C217.811 165.422 225.942 154.536 237.28 143.57C242.332 138.424 249.713 137.235 256.511 135.682C270.282 131.945 271.74 109.631 290.957 107.486L290.962 107.482ZM291.065 109.308C280.548 110.008 273.458 120.974 269.048 129.782C265.938 136.239 261.218 139.357 254.079 139.528C240.838 139.42 230.635 150.355 225.83 161.792C222.218 168.168 225.471 185.24 235.266 178.77C245.94 170.447 256.816 150.79 272.314 160.849C276.922 163.735 281.867 166.095 286.735 168.54C291.738 171.053 296.718 173.682 301.914 175.724C316.717 181.364 321.316 159.436 315.393 149.655C312.252 142.471 308.851 135.431 307.317 127.619C305.064 119.359 301.789 109.586 291.069 109.313L291.065 109.308Z" fill="#1B5930"/>
<path d="M129.352 165.059C128.876 177.46 118.067 188.88 110.273 198.141C107.159 202.049 104.436 206.28 101.223 210.103C92.6576 220.759 84.1817 226.718 72.9824 214.998C61.0247 197.436 92.8639 191.671 96.8618 177.259C101.901 165.557 109.506 155.273 116.483 144.701C122.787 134.705 130.002 159.235 129.352 165.059ZM127.032 164.538C127.503 158.62 122.334 143.306 115.267 151.486C108.963 159.118 103.327 167.194 100.034 176.657C96.9695 187.273 86.1695 191.505 78.3039 198.015C62.3843 210.61 85.8598 230.514 99.2758 209.255C103.318 203.987 107.123 198.536 111.135 193.245C117.596 184.5 127.014 176.218 127.032 164.538Z" fill="#1B5930"/>
</svg>
