<svg width="760" height="600" viewBox="0 0 760 600" fill="none" xmlns="http://www.w3.org/2000/svg">
<path stroke-width="1.5" d="M555.563 2.88008C552.402 1.47808 548.137 0.93768 543.277 1.03728C538.426 1.13668 533.025 1.87238 527.619 2.98698C516.803 5.21708 506.023 8.95158 499.667 12.0781C494.846 14.4462 488.448 18.4471 483.043 23.9847C477.645 29.5166 473.263 36.5545 472.395 45.0106C472.233 72.1469 465.061 97.8589 457.9 123.53C456.677 127.915 455.454 132.299 454.266 136.689L454.263 136.702L454.259 136.715C444.084 167.621 435.954 200.099 432.266 230.751C428.577 261.408 429.336 290.203 436.907 313.762C444.473 337.303 458.835 355.607 482.38 365.352C505.947 375.105 538.783 376.312 583.343 365.485L583.349 365.484C644.442 351.391 713.282 329.947 740.657 268.212L739.995 267.819C711.873 315.467 657.498 333.359 605.384 338.029C578.918 342.638 551.954 338.602 532.222 325.818C512.46 313.014 499.996 291.458 502.548 261.176C505.681 206.642 539.327 161.578 573.389 121.745L573.398 121.734C593.672 99.2957 596.077 72.6364 589.967 50.0355C583.848 27.3991 569.217 8.93448 555.563 2.88008ZM555.563 2.88008L555.766 2.42308M407.371 62.6538C380.129 102.355 361.258 161.126 355.79 220.378C350.236 280.552 358.497 341.329 385.961 383.186L385.971 383.201L385.981 383.215C402.299 404.684 421.751 415.976 442.975 420.407C464.182 424.835 487.125 422.406 510.432 416.498C533.739 410.59 557.446 401.193 580.186 391.653C584.743 389.742 589.26 387.825 593.728 385.929C609.721 379.142 625.075 372.627 639.313 367.601C627.435 374.458 615.557 381.316 603.679 388.175C496.796 449.886 389.891 511.61 282.95 573.207L282.949 573.208C230.409 603.716 166.191 606.579 111.785 586.391C59.1531 566.863 15.7381 525.778 0.947266 467.328C25.564 523.702 76.1456 552.041 130.835 556.518C187.307 561.14 248.201 540.327 289.528 498.641C312.08 477.99 313.148 449.886 308.413 420.608C306.55 409.086 303.782 397.349 301.056 385.789C300.317 382.659 299.582 379.541 298.869 376.445C295.517 361.897 292.647 347.804 292.169 334.891L292.168 334.866L292.164 334.841C286.31 292.762 286.901 242.158 298.635 195.867C310.367 149.585 333.222 107.669 371.852 82.8507C380.864 78.6776 389.428 73.4798 397.964 68.2994C401.096 66.398 404.225 64.499 407.371 62.6538ZM294.939 127.858C230.708 203.609 229.883 285.788 228.98 375.63C228.858 387.759 228.735 400.028 228.454 412.44C226.007 467.529 178.712 514.927 122.552 511.905L122.533 511.904H122.514C38.6358 513.68 -14.1893 424.883 10.4982 348.697C10.6218 348.732 10.7446 348.767 10.8669 348.801L10.8729 348.803C11.0123 348.842 11.1509 348.881 11.2893 348.92C6.70845 381.968 9.43503 417.823 33.0789 443.773C45.2962 458.182 63.2928 467.603 81.5643 469.585C99.848 471.568 118.433 466.101 131.752 450.697L131.756 450.693C145.481 434.428 151.999 415.202 156.05 395.146C158.076 385.119 159.487 374.874 160.87 364.684L161.004 363.703C162.342 353.839 163.673 344.035 165.529 334.511L165.531 334.501L165.532 334.491C174.92 273.391 193.944 209.398 234.834 162.098C242.825 157.677 250.669 153.005 258.502 148.339C270.508 141.188 282.489 134.051 294.939 127.858ZM629.092 9.35168C629.177 9.21508 629.26 9.07908 629.342 8.94458L629.343 8.94188C629.425 8.80758 629.506 8.67458 629.588 8.54278C633.302 10.2734 637.125 11.9336 640.967 13.6019C650.529 17.7538 660.207 21.9564 668.617 27.4222C680.49 35.1386 689.735 45.3181 692.353 61.3108L692.36 61.3539L692.374 61.3951C702.838 91.3264 697.448 119.873 687.505 147.965C683.491 159.304 678.742 170.552 674 181.785C672.866 184.471 671.733 187.156 670.609 189.841C664.794 203.745 659.265 217.644 655.46 231.633C651.58 244.636 657.213 255.351 666.569 261.548C675.9 267.728 688.968 269.446 700.097 264.517C738.428 251.758 751.812 219.742 758.848 183.842C764.065 261.184 683.899 325.203 609.862 296.698C599.908 292.877 593.157 286.803 588.926 279.426C584.691 272.042 582.965 263.322 583.12 254.195C583.429 235.929 591.272 216.127 601.41 202.416C602.003 201.626 602.598 200.834 603.193 200.04C625.116 170.838 648.628 139.517 658.447 107.632C663.495 91.2409 664.933 74.6766 660.669 58.1575C656.429 41.7355 646.565 25.4016 629.092 9.35168ZM117.749 229.988L117.748 229.987C118.607 229.641 119.704 229.106 120.961 228.456C122.197 227.817 123.608 227.056 125.13 226.236C125.53 226.02 125.938 225.8 126.352 225.577C130.339 223.432 134.935 221.005 139.185 219.245C141.309 218.365 143.335 217.657 145.146 217.234C146.964 216.809 148.524 216.681 149.736 216.923C150.922 217.16 151.755 217.744 152.214 218.766C152.686 219.817 152.797 221.404 152.335 223.708C136.334 262.823 123.175 302.897 110.685 343.226L110.681 343.241L110.677 343.257C106.448 360.901 99.681 373.226 92.0573 380.745C84.4379 388.259 75.9804 390.963 68.3011 389.442C60.6158 387.921 53.5939 382.146 48.9027 372.465C44.212 362.785 41.8678 349.222 43.5551 332.221C48.9028 288.388 79.42 251.582 117.518 230.918L118.26 230.873L117.856 230.173L117.855 230.172L117.854 230.17L117.853 230.169V230.168L117.852 230.166L117.851 230.165L117.85 230.164L117.849 230.162V230.161L117.848 230.16L117.847 230.158L117.846 230.157L117.845 230.154L117.844 230.153L117.843 230.152V230.15L117.842 230.149L117.841 230.148L117.84 230.146L117.839 230.145V230.144L117.838 230.142L117.837 230.141L117.836 230.14V230.138L117.835 230.137L117.834 230.136L117.833 230.134L117.832 230.133L117.831 230.13L117.83 230.129L117.829 230.128V230.126L117.828 230.125L117.827 230.124L117.826 230.122L117.825 230.121V230.119L117.824 230.118L117.823 230.117L117.822 230.115V230.114L117.821 230.113L117.82 230.111L117.819 230.11V230.109L117.818 230.107L117.817 230.106L117.816 230.105L117.815 230.103L117.814 230.101L117.813 230.099L117.812 230.098L117.811 230.097V230.095L117.81 230.094L117.809 230.093L117.808 230.091V230.09L117.807 230.088L117.806 230.087L117.805 230.086L117.804 230.084V230.083L117.803 230.082L117.802 230.08L117.801 230.079L117.8 230.076L117.799 230.075L117.798 230.074L117.797 230.072V230.071L117.796 230.07L117.795 230.068L117.794 230.067V230.065L117.793 230.064L117.792 230.063L117.791 230.061L117.79 230.06L117.789 230.057L117.788 230.056L117.787 230.055L117.786 230.053L117.785 230.051L117.784 230.049L117.783 230.048V230.046L117.782 230.045L117.781 230.044L117.78 230.042L117.779 230.041V230.04L117.778 230.038L117.777 230.037L117.776 230.036L117.775 230.034L117.774 230.032L117.773 230.03L117.772 230.029V230.027L117.771 230.026L117.77 230.025L117.769 230.023L117.768 230.022V230.021L117.767 230.019L117.766 230.018L117.765 230.017L117.764 230.015L117.763 230.012L117.762 230.011L117.761 230.01V230.008L117.76 230.007L117.759 230.006L117.758 230.004L117.757 230.003V230.001L117.756 230L117.755 229.999L117.754 229.997L117.753 229.996V229.995L117.752 229.993L117.751 229.992L117.75 229.991L117.749 229.988Z" stroke="#254D32"/>
</svg>
