<svg width="1441" height="378" viewBox="0 0 1441 378" fill="none" xmlns="http://www.w3.org/2000/svg">
<mask id="mask0_78_188" style="mask-type:alpha" maskUnits="userSpaceOnUse" x="0" y="0" width="1441" height="378">
<rect width="1441" height="378" fill="#C2E812"/>
</mask>
<g mask="url(#mask0_78_188)">
<path d="M1265.7 377.605C1273.67 365.362 1281.74 353.046 1293.91 344.558C1308.57 335.296 1324.62 328.021 1339.58 319.169C1348.12 312.259 1352.71 305.64 1342.77 297.527C1314.73 273.168 1288.12 200.592 1346.2 197.164C1374.32 198.24 1402.18 209.872 1417.58 178.357C1426.04 161.51 1434.53 133.322 1415.48 120.814C1393.6 107.686 1372.16 93.8202 1359 71.2571C1341.68 44.4548 1327.41 37.1799 1297.71 51.7844C1278.28 60.9738 1258.63 49.5691 1239.68 44.546C1200.48 28.3005 1166.02 64.7388 1129.66 39.4772C1094.54 18.6645 1051.28 26.9877 1013.73 12.5291C977.056 -1.14555 943.352 20.3601 912.329 37.973C880.877 57.9197 861.541 10.6784 871.424 -14.3826C875.471 -27.647 877.732 -41.1484 879.583 -54.896C880.841 -64.1765 884.706 -73.2929 888.526 -81.9991C900.095 -105.064 895.063 -129.915 894.698 -154.529C894.625 -165.569 892.556 -176.126 886.511 -185.361C874.587 -203.585 873.812 -222.62 881.516 -242.375C893.112 -284.438 934.756 -312.973 977.84 -314.258C1014.05 -314.194 1052.07 -319.91 1086.42 -305.689C1098.61 -300.611 1107.63 -302.58 1116.14 -312.699C1134.04 -332.801 1161.23 -345.928 1188.27 -340.769C1207.04 -335.618 1220.84 -331.579 1233.8 -351.699L1242.01 -351.699C1223.12 -325.07 1226.44 -321.095 1193.5 -331.917C1166.55 -342.327 1134.36 -327.668 1119.57 -303.637C1116.35 -297.958 1113.5 -292.078 1110.4 -286.334C1101.01 -267.144 1095.25 -309.554 1048.9 -310.32C1031.42 -311.386 1013.79 -310.247 996.228 -309.919C967.183 -310.302 938.475 -305.926 915.538 -287.301C888.335 -268.184 867.978 -222.027 886.758 -191.934C902.119 -169.188 896.421 -140.909 899.192 -114.955C900.095 -88.9822 881.862 -67.5404 881.88 -41.4583C878.507 -16.534 862.955 10.2956 884.87 31.783C898.445 45.6855 914.964 30.3517 928.802 24.8727C954.748 12.1462 983 -1.94777 1012.07 9.21984C1050.61 23.5964 1093.65 16.9688 1130.66 35.4569C1145.12 42.75 1161.4 47.9646 1177.36 42.2851C1187.26 39.9969 1197.15 37.3987 1207.19 36.0677C1239.85 31.0445 1270.83 61.6119 1302.33 45.2935C1309.42 42.1301 1316.79 40.006 1324.78 40.1974C1357.22 41.2549 1363.38 91.1673 1401.62 108.315C1407.44 111.57 1413.08 115.153 1418.65 118.845C1440.82 132.966 1428.24 167.782 1417.04 185.732C1399.21 213.437 1373.59 201.859 1346.57 200.956C1299.59 202.935 1314.46 257.934 1335.94 281.172C1345.65 292.905 1364.77 297.581 1376.19 285.703C1396.1 266.923 1422.57 257.433 1449.85 259.092C1449.85 260.614 1449.85 262.128 1449.85 263.65C1427.61 264.315 1404.16 267.57 1388.64 285.311C1380.25 294.454 1380.63 299.952 1391.13 306.087C1409.97 317.1 1428.38 329.088 1449.85 334.758C1449.85 335.67 1449.85 336.581 1449.85 337.493C1437.89 332.734 1425.9 328.067 1414 323.18C1394.2 314.848 1372.74 300.818 1353.16 317.792C1324.26 338.468 1286.54 341.367 1270.26 377.605L1265.7 377.605Z" fill="#B8DF00"/>
<path d="M1096.13 -351.708C1072.52 -340.203 1046.66 -336.703 1020.71 -336.557C989.937 -337.186 955.55 -353.349 930.662 -327.067C887.715 -290.127 878.772 -280.4 864.176 -224.79C860.493 -211.47 860.566 -197.996 865.671 -184.951C871.415 -170.273 873.83 -154.894 876.647 -139.487C884.615 -107.306 863.374 -82.3546 855.206 -52.9633C849.143 -28.6498 838.942 -2.8321 848.614 21.846C856.053 50.4807 880.194 76.5446 854.695 102.8C847.648 110.886 841.13 119.574 835.368 128.618C821.046 151.883 826.142 187.282 853.884 197.219C861.077 200.81 868.26 204.439 875.353 208.24C895.218 215.342 913.769 256.876 926.25 241.433C945.011 220.912 929.614 176.406 926.952 150.634C924.281 137.625 919.458 125.053 915.611 112.281C911.499 99.5088 906.011 84.9773 914.918 72.9983C969.097 -5.30262 998.37 33.7795 1072.93 39.3405C1109.16 41.0452 1123.88 70.5004 1153.31 82.8805C1180.23 94.0299 1198.47 71.8952 1223.61 77.8118C1239.34 82.3426 1254.81 87.9401 1269.84 94.4766C1287.01 103.265 1301.49 91.2676 1315.77 82.762C1332.81 73.1168 1345.43 93.1365 1356.33 103.365C1367.14 116.511 1383.82 123.111 1394.36 136.193C1400.14 144.681 1398.18 153.515 1393.37 161.956C1388.73 170.079 1381.4 171.529 1372.97 170.316C1361.11 168.611 1349.27 166.806 1337.4 165.174C1319.2 162.677 1307.86 172.221 1299.5 186.935C1280.46 217.484 1293.64 249.82 1298.47 282.102C1300.18 295.63 1294.53 306.989 1286.8 317.537C1272.08 337.958 1256.99 358.087 1241.09 377.605C1238.96 377.605 1236.83 377.605 1234.7 377.605C1249.03 366.939 1258.15 351.961 1267.97 337.539C1283.88 314.848 1301.66 296.223 1293.08 266.522C1281.79 231.843 1282.19 191.803 1309.78 164.801C1327.09 149.576 1352.99 162.202 1373.48 163.105C1387.4 166.223 1397.63 145.747 1387.51 136.33C1370.49 122.519 1354.19 107.723 1338.24 92.7262C1315.14 74.3475 1302 115.28 1274.85 103.055C1260.31 97.7312 1245.91 92.0334 1230.87 88.1863C1190.94 79.9906 1174.64 111.524 1129.26 72.1231C1110.61 52.1035 1085.4 42.1119 1058.34 40.5621C1021.72 39.222 980.392 11.4534 948.357 40.5256C928.885 56.8258 904.58 81.978 917.854 108.835C926.359 130.833 931.155 153.569 933.962 176.88C936.734 199.534 946.014 224.367 931.373 244.989C908.272 275.219 904.307 218.15 856.774 201.932C851.541 199.58 846.417 196.799 841.659 193.609C813.963 173.99 824.374 131.945 844.202 110.257C848.624 105.07 852.626 99.4997 856.436 93.8384C861.943 85.6519 864.267 76.6996 860.931 67.027C854.002 43.6981 840.51 21.29 841.03 -3.5705C842.917 -20.0074 847.074 -36.4899 851.413 -52.4619C856.965 -71.4878 866.866 -89.1281 873.22 -107.753C878.79 -132.267 869.117 -157.674 863.255 -181.386C852.781 -211.397 865.671 -241.5 876.456 -269.36C889.392 -297.584 916.03 -316.191 938.056 -337.013C956.662 -354.151 982.416 -344.397 1004.43 -340.896C1030.4 -336.694 1056.01 -344.005 1081.17 -349.63C1085.6 -352.529 1090.96 -351.617 1096.11 -351.69L1096.13 -351.708Z" fill="#B8DF00"/>
<path d="M235.544 377.605C222.207 347.603 244.961 319.169 242.108 288.383C242.518 253.631 246.575 208.979 282.202 192.104C304.501 184.538 327.857 180.372 348.451 168.329C365.225 159.914 382.701 155.064 401.508 156.113C420.489 157.17 447.501 154.791 465.186 149.376C470.428 147.434 474.614 140.345 464.008 134.35C443.815 122.936 402.32 124.251 385.856 107.996C366.547 84.3391 388.044 50.5081 412.749 40.8356C426.278 36.1498 441.192 39.8511 455.222 39.1217C493.803 40.1428 458.222 -6.92528 479.253 -31.5031C497.915 -57.4393 534.8 -46.135 562.176 -48.1224C594.558 -46.0712 621.159 -69.9653 638.554 -95.0081C650.214 -114.335 653.815 -137.099 660.816 -158.285C664.353 -169.535 665.265 -180.593 660.506 -191.651C648.901 -219.037 639.347 -248.875 613.228 -266.087C571.667 -293.901 531.326 -347.442 475.698 -331.67C432.678 -321.141 375.044 -291.166 355.899 -351.717L358.634 -351.717C385.19 -278.385 461.978 -349.028 513.112 -336.137C554.081 -323.83 584.192 -290.017 618.917 -266.451C643.449 -249.477 652.392 -220.149 663.833 -193.985C668.848 -182.088 668.456 -170.255 664.052 -158.039C654.134 -133.206 652.748 -103.97 633.512 -83.877C623.767 -73.2107 613.274 -63.3103 601.085 -55.3881C564.929 -28.9049 482.408 -73.4022 475.497 -9.7696C482.107 50.6084 483.11 44.2087 424.591 43.1147C391.225 41.8293 361.661 98.7431 401.7 112.381C412.12 115.618 422.841 117.915 433.48 120.395C446.525 124.88 465.497 122.455 473.893 135.008C478.533 143.523 474.868 152.949 465.396 154.982C438.548 159.322 411.527 161.656 384.415 161.956C360.466 164.728 338.268 177.09 315.778 185.267C289.304 191.603 265.802 197.2 255.217 225.434C241.834 255.655 249.128 289.103 243.01 320.628C237.167 339.462 232.071 358.26 239.209 377.596C237.996 377.596 236.775 377.596 235.562 377.596L235.544 377.605Z" fill="#B8DF00"/>
<path d="M317.592 -351.708C324.375 -315.388 354.113 -269.669 395.283 -271.857C418.931 -277.154 441.138 -288.941 464.567 -295.113C484.469 -299.735 507.314 -296.134 520.177 -278.776C527.744 -270.088 534.928 -261.063 542.449 -252.321C560.253 -231.362 590.292 -227.314 607.367 -205.462C619.875 -190.712 626.42 -174.202 621.361 -154.529C614.177 -125.338 610.047 -86.8667 573.718 -81.4242C479.928 -82.9831 497.66 -88.3618 412.321 -44.3569C379.903 -23.9452 354.259 -65.0056 330.146 -38.5497C311.256 -10.772 379.839 -16.8435 358.926 35.8402C354.687 48.2203 346.382 58.1299 337.421 67.1278C325.442 79.1706 314.347 91.651 306.817 107.021C302.705 115.417 296.397 121.325 287.308 124.379C274.107 128.809 265.437 138.847 257.789 149.75C239.784 175.495 222.253 201.558 204.011 227.139C197.019 237.45 192.442 248.745 190.336 261.098C183.599 299.87 172.021 339.353 187.218 377.615C186.307 377.615 185.395 377.615 184.483 377.615C175.996 352.645 174.009 326.289 179.479 300.408C185.204 271.217 187.228 239.784 207.639 216.491C238.125 182.943 251.608 135.209 289.532 108.963C303.9 97.9504 315.204 82.1699 328.961 70.1271C346.09 54.538 367.97 29.9693 354.76 5.61933C347.348 -6.64225 332.124 -10.3891 322.315 -20.1619C316.252 -26.1879 315.678 -33.2895 321.576 -39.589C335.652 -54.622 346.51 -57.9586 365.153 -51.5224C384.069 -41.7404 402.585 -44.0104 420.863 -53.5553C503.421 -93.8317 485.043 -83.8856 571.001 -84.15C608.169 -86.3835 611.834 -128.583 619.118 -157.127C623.43 -175.405 616.365 -190.52 604.997 -204.095C572.834 -237.288 560.363 -219.966 521.837 -270.745C506.813 -292.551 480.357 -300.209 455.797 -290.19C441.858 -285.03 427.947 -279.624 414.555 -273.215C364.56 -249.139 321.904 -307.484 314.848 -351.68L317.583 -351.68L317.592 -351.708Z" fill="#B8DF00"/>
<path d="M774.325 -351.708C786.513 -328.497 782.374 -303.5 775.574 -279.424C772.337 -264.628 768.9 -249.868 765.773 -235.045C764.88 -212.746 769.785 -190.028 760.851 -168.395C748.525 -137.91 714.348 -122.184 706.508 -89.2096C697.893 -55.2328 657.625 -49.4073 642.647 -19.8155C638.235 -11.7839 634.98 -3.03214 632.017 5.67404C624.952 21.6551 651.7 37.8003 635.071 51.4476C617.276 63.2624 616.474 31.747 604.139 26.1678C592.817 20.3879 575.185 22.3753 571.721 38.7849C562.532 76.6545 566.087 72.2057 580.263 106.018C588.213 130.022 576.854 154.737 572.186 178.348C565.212 205.67 537.225 217.075 517.242 233.657C485.763 256.713 567.783 264.343 580.464 259.402C591.413 257.451 599.125 261.672 603.738 271.819C610.211 289.185 614.186 307.801 628.589 320.719C644.179 338.387 666.778 352.654 670.397 377.615L667.662 377.615C661.172 349.144 634.451 333.674 617.431 311.967C609.691 301.684 605.151 288.593 599.873 276.769C593.829 262.228 577.72 266.094 565.239 266.185C543.679 265.246 521.864 262.237 501.224 255.911C480.375 244.643 513.185 231.287 521.599 224.122C531.39 217.467 541.446 211.185 551.009 204.239C573.836 188.084 572.815 156.633 578.923 131.882C581.348 116.967 575.924 103.356 568.321 90.7849C557.016 74.0654 561.73 55.7414 565.75 37.5724C568.603 22.1109 578.622 17.3613 591.969 16.632C603.41 15.4104 618.498 20.7617 623.73 7.00503C652.192 -61.9242 689.314 -43.7825 706.954 -98.9368C719.134 -133.98 764.552 -150.764 763.33 -191.715C763.513 -202.891 763.184 -214.095 762.437 -225.254C759.875 -268.347 795.557 -310.739 768.864 -351.69L774.334 -351.69L774.325 -351.708Z" fill="#B8DF00"/>
<path d="M303.917 377.605C295.621 360.083 308.22 335.788 328.049 335.123C353.711 333.5 366.465 308.877 383.914 293.597C411.181 271.335 377.368 226.938 422.212 219.098C461.367 212.89 503.521 214.221 536.076 188.011C553.58 176.169 554.081 153.943 554.054 134.899C551 105.161 514.671 95.206 525.045 59.8434C526.832 52.1856 528.409 44.4184 529.22 36.6056C529.585 14.2339 524.58 -5.01082 553.005 -8.83971C562.131 -10.2436 571.384 -10.9091 580.601 -11.5291C616.866 -14.5648 638.955 -53.501 666.186 -74.2956C688.202 -93.6589 687.946 -126.751 712.944 -143.507C757.988 -176.509 747.376 -200.111 729.754 -245.566C725.834 -257.016 727.548 -272.395 716.636 -280.071C691.83 -290.683 664.599 -295.433 643.978 -314.44C633.066 -323.949 619.482 -335.554 623.913 -351.717L630.294 -351.717C624.04 -326.656 654.152 -310.921 672.476 -300.711C685.749 -294.293 699.825 -291.977 714.393 -291.485C734.65 -292.543 731.541 -268.503 733.784 -254.527C739.491 -214.397 765.983 -183.766 726.263 -150.436C711.986 -138.329 695.923 -126.833 690.727 -107.835C684.446 -90.1673 673.725 -76.1827 659.157 -64.2493C632.345 -44.1385 613.456 -8.44771 576.334 -7.8278C513.486 -4.81939 542.922 18.5095 528.737 61.4023C518.791 99.91 568.758 108.416 556.953 153.779C550.608 215.643 468.624 213.756 422.258 224.449C386.822 233.721 417.59 272.593 390.077 294.637C373.439 308.74 350.958 343.802 329.854 344.23C313.471 343.61 299.724 366.31 315.778 377.605L303.926 377.605L303.917 377.605Z" fill="#B8DF00"/>
<path d="M264.717 377.605C261.389 363.575 263.605 349.882 267.014 336.198C274.307 304.109 258.326 271.709 268.874 239.574C273.04 222.498 283.643 211.276 300.353 206.827C327.301 200.765 354.094 191.439 381.772 189.816C403.177 189.388 424.573 189.05 445.979 188.932C462.844 189.843 480.193 190.746 496.192 184.456C534.444 167.855 509.538 119.228 494.104 94.2761C480.521 68.0846 511.006 51.1554 501.142 19.722C499.656 12.9029 497.988 6.10208 496.766 -0.762581C491.524 -38.6504 544.017 -31.3208 568.203 -31.5943C585.123 -30.4912 599.153 -36.6539 611.506 -47.3748C634.762 -68.4337 662.503 -88.1981 669.13 -120.78C673.47 -144.674 691.812 -159.607 707.201 -176.709C720.511 -192.244 702.36 -204.597 692.66 -215.591C676.533 -236.632 665.493 -262.458 643.212 -277.947C608.379 -304.075 571.147 -327.021 535.475 -351.717L541.856 -351.717C574.384 -328.37 608.707 -307.649 641.335 -284.429C659.75 -271.766 673.278 -254.801 684.218 -235.574C691.73 -220.769 707.073 -212.619 715.369 -198.479C723.792 -183.884 708.914 -169.407 697.71 -160.865C666.578 -137.153 673.907 -94.2423 640.505 -70.4667C630.595 -61.9884 621.169 -52.9541 611.405 -44.3026C584.567 -10.2619 493.803 -51.6687 500.404 0.942185C501.744 8.56351 503.43 16.1301 505.117 23.6785C512.592 51.5748 483.648 72.7066 501.434 99.6183C506.375 108.498 511.325 117.395 515.628 126.594C525.109 147.443 523.031 180.563 497.359 187.501C472.526 195.696 445.851 192.041 420.134 192.551C386.266 192.287 352.845 195.423 320.172 204.876C297.764 209.088 275.256 217.393 271.272 242.682C261.289 275.219 279.768 307.828 270.287 340.128C266.713 352.471 266.805 364.997 268.354 377.605L264.708 377.605L264.717 377.605Z" fill="#B8DF00"/>
<path d="M203.637 377.605C196.07 359.455 194.931 341.067 202.105 322.579C209.052 304.674 211.833 285.967 213.237 266.996C216.692 233.092 237.96 203.582 260.378 179.059C287.663 153.971 330.528 168.42 343.948 122.637C347.321 99.108 353.019 76.3899 366.192 56.3064C379.064 34.9557 388.345 9.22922 413.05 -0.972054C439.661 -11.7568 451.139 -39.3339 473.237 -55.9167C521.089 -90.6958 597.831 -26.1151 628.553 -118.783C631.844 -131.729 635.108 -144.683 638.208 -157.674C645.008 -194.277 615.891 -226.549 588.085 -246.176C558.867 -263.68 544.755 -299.279 511.134 -310.201C465.233 -326.173 420.489 -278.941 375.436 -298.021C353.11 -309.207 339.937 -327.714 334.002 -351.69L336.737 -351.69C345.033 -316.026 379.639 -286.206 417.226 -298.732C436.197 -304.157 455.077 -310.019 474.303 -314.367C510.085 -324.24 538.848 -301.714 560.408 -275.221C571.667 -262.951 584.758 -252.85 598.168 -243.131C614.125 -230.778 628.432 -214.139 636.395 -195.2C642.236 -181.308 641.984 -165.783 639.584 -150.906C633.518 -113.308 618.948 -73.6682 578.55 -64.5226C524.827 -58.679 481.223 -82.5366 448.486 -23.4349C442.533 -13.6256 434.474 -6.39631 424.391 -1.19996C410.58 6.05671 394.79 12.1921 387.068 26.6507C372.874 53.2615 351.405 78.6507 350.63 110.002C349.39 136.212 334.294 151.482 311.949 161.355C290.453 168.584 266.668 170.79 252.856 191.284C231.314 217.129 216.701 247.669 215.671 281.728C213.738 314.638 189.753 345.142 207.265 377.633L203.619 377.633L203.637 377.605Z" fill="#B8DF00"/>
<path d="M168.995 377.606C159.751 340.265 144.162 302.477 157.016 264.088C166.469 227.203 199.772 204.321 215.379 170.435C223.338 154.591 228.525 138.126 226.455 120.103C223.593 95.1061 232.345 74.111 248.791 55.9602C260.25 42.0759 277.872 39.4777 294.336 35.2933C302.021 32.5857 302.888 28.4195 297.39 22.43C244.397 -32.0953 311.94 -57.9495 292.44 -122.858C289.769 -139.979 284.044 -156.735 269.239 -167.1C177.154 -239.138 313.098 -241.335 301.392 -306.709C299.132 -321.697 296.287 -336.629 294.801 -351.708L297.536 -351.708C301.42 -331.916 304.638 -311.978 305.686 -291.822C310.336 -249.166 193.527 -232.656 262.83 -176.782C273.87 -167.593 290.644 -161.494 293.033 -145.686C295.74 -129.541 298.43 -113.359 300.134 -97.0862C302.924 -72.5357 285.329 -52.1605 281.282 -28.9136C272.594 16.1853 336.254 21.6278 307.601 39.5962C289.113 47.5913 266.349 43.9265 252.091 60.7645C212.188 101.169 248.517 134.161 209.699 185.577C199.981 199.708 189.88 213.61 179.232 227.039C143.532 272.867 155.803 326.7 170.818 377.615C170.207 377.615 169.605 377.615 168.995 377.615L168.995 377.606Z" fill="#B8DF00"/>
<path d="M1158.13 377.606C1179.66 360.859 1207.67 357.112 1230.92 344.012C1245.82 334.43 1253.75 318.869 1261.21 303.252C1268.03 288.994 1268.29 274.508 1263.27 259.849C1256.31 239.483 1252.67 218.406 1249.26 197.256C1247.48 186.535 1244.11 174.173 1232.76 170.262C1203.02 159.723 1180.97 136.896 1154.01 121.507C1127.02 106.319 1111.6 74.9679 1080.96 66.1614C1052.08 60.3999 1022.67 56.4525 994.067 49.1867C965.842 43.9994 938.128 76.2533 940.517 103.812C947.555 140.57 957.756 177.136 965.66 213.802C970.264 235.663 960.646 256.576 957.747 277.936C956.015 317.346 990.985 318.75 989.463 377.606C987.339 377.606 985.205 377.606 983.081 377.606C986.199 344.686 978.058 332.498 959.661 306.953C946.315 285.913 958.093 262.301 961.949 240.294C964.858 225.051 962.314 210.091 958.622 195.241C952.085 167.928 945.74 140.57 938.858 113.339C932.093 88.7337 945.786 67.2827 964.712 52.7876C989.572 35.3115 1022.83 55.3311 1050.1 58.0478C1101.81 60.8466 1112.18 84.0479 1148.76 114.159C1165.15 124.671 1181.76 135.255 1197.41 147.015C1217.51 164.491 1248.38 155.393 1252.2 180.773C1255.45 206.709 1258.93 232.946 1266.7 257.944C1277.27 287.472 1261.8 313.745 1244.32 336.418C1224.76 361.725 1187.94 357.331 1164.52 377.615C1162.39 377.615 1160.26 377.615 1158.13 377.615L1158.13 377.606Z" fill="#B8DF00"/>
<path d="M802.585 -351.708C806.852 -298.988 784.936 -249.212 781.034 -197.166C780.141 -139.614 737.23 -123.196 728.578 -72.9368C724.23 -52.6619 712.652 -33.6542 718.14 -12.3127C720.683 0.587073 718.122 12.3108 712.05 24.0436C701.803 43.8354 692.924 64.3473 682.905 84.2667C672.986 103.183 661.782 123.586 639.52 129.192C612.344 136.185 592.105 162.613 595.734 191.22C596.664 203.017 607.941 208.268 616.692 214.13C643.358 229.737 637.587 261.9 640.532 288.019C642.383 314.484 666.103 327.885 685.056 342.38C697.181 350.448 696.926 364.524 697.737 377.615C696.525 377.615 695.303 377.615 694.091 377.615C693.152 370.887 692.86 363.986 691.11 357.477C684.528 338.56 655.747 330.073 644.944 310.801C632.865 292.167 637.296 268.901 633.932 247.934C631.279 209.152 584.074 219.782 592.033 179.606C605.735 108.115 651.28 142.603 675.092 91.6327C684.318 72.8529 692.596 53.6173 701.302 34.5822C710.081 18.1544 716.262 0.915278 711.33 -17.6822C709.552 -26.2334 711.357 -34.4564 714.566 -42.1507C720.611 -56.6367 725.333 -71.4691 728.742 -86.7755C742.435 -131.765 777.032 -138.812 778.901 -198.57C782.064 -250.26 804.864 -299.343 798.93 -351.69L802.576 -351.69L802.585 -351.708Z" fill="#B8DF00"/>
<path d="M230.986 -351.708C231.305 -340.485 231.36 -329.254 232.016 -318.05C235.727 -273.316 174.701 -236.093 206.199 -192.198C220.466 -171.859 236.875 -152.259 246.466 -129.149C263.222 -89.6472 223.894 -61.9606 200.309 -36.307C193.016 -28.9136 188.631 -20.0981 185.833 -10.3526C176.333 30.9539 152.448 73.6369 172.368 115.381C180.345 133.951 180.217 152.549 171.802 171.018C159.039 196.791 132.739 211.769 115.545 234.168C97.1571 264.252 106.903 303.307 123.978 332.078C132.547 346.309 138.336 361.852 143.478 377.615C142.566 377.615 141.654 377.615 140.743 377.615C136.084 365.937 131.845 354.067 126.658 342.617C119.912 327.73 109.61 314.383 106.246 298.047C80.5471 196.389 192.141 210.684 171.62 125.181C168.356 115.39 165.02 105.617 162.157 95.7078C157.982 81.2218 159.705 66.7449 163.616 52.5415C170.353 29.3676 177.427 6.24837 183.781 -17.0076C199.726 -57.8583 266.148 -79.0449 242.537 -132.604C233.028 -155.158 215.452 -172.361 202.771 -192.936C172.103 -238.892 235.344 -277.509 225.945 -324.906C224.979 -333.785 225.015 -342.765 224.605 -351.708L230.986 -351.708Z" fill="#B8DF00"/>
<path d="M1020.47 377.606C1009.99 354.331 1001.31 330.401 993.073 306.279C973.91 263.869 1016.02 248.663 994.003 216.993C979.79 196.216 971.495 173.115 967.41 148.3C964.101 125.837 950.39 100.047 968.067 80.2098C973.783 73.7098 980.93 69.0149 989.846 69.5801C1012.95 71.1664 1035.86 75.6881 1058.92 77.4749C1102.98 78.7695 1123.43 122.182 1157.16 143.569C1178.6 157.007 1192.57 178.257 1208.33 197.42C1238.64 232.919 1267.6 299.259 1216.11 331.121C1185.74 346.272 1151.58 355.106 1125.31 377.615C1123.18 377.615 1121.05 377.615 1118.93 377.615C1142.96 359.209 1170.17 347.002 1198.37 336.655C1209.57 332.543 1219.96 327.092 1227.83 317.62C1267.67 264.881 1209.44 204.658 1177.16 164.063C1172.59 158.538 1166.54 154.062 1160.61 149.905C1133.55 132 1114.81 104.687 1087.07 87.8403C1079.54 82.8354 1070.64 81.7323 1061.89 80.5654C1027.85 78.4504 957.856 52.5324 962.916 110.577C968.596 147.845 975.788 185.349 999.053 216.117C1006.84 225.498 1012.22 236.456 1005.52 248.089C998.233 262.985 988.743 279.203 994.586 296.041C1004.77 323.208 1009.59 353.374 1025.95 377.615C1024.12 377.615 1022.3 377.615 1020.48 377.615L1020.47 377.606Z" fill="#B8DF00"/>
<path d="M126.147 377.605C105.827 328.431 83.747 315.814 83.3276 257.022C81.951 215.123 116.803 184.857 126.266 145.592C132.319 124.816 128.919 102.672 130.779 81.3672C132.447 57.0081 137.078 33.3419 148.291 11.189C155.748 -3.56134 161.82 -19.0046 168.803 -34.0011C177.564 -52.8174 190.947 -67.9597 207.065 -80.8048C222.535 -92.5467 234.451 -114.59 224.204 -133.06C210.411 -163.19 182.286 -186.82 176.124 -220.04C174.984 -231.299 175.805 -242.758 175.832 -254.117C176.944 -274.283 178.412 -290.628 157.964 -301.55C138.537 -314.103 112.382 -325.699 109.738 -351.699L113.384 -351.699C118.708 -319.974 154.044 -313.711 174.51 -294.548C178.859 -290.692 181.065 -285.341 180.819 -279.452C172.669 -192.043 184.018 -207.286 225.088 -137.764C243.02 -108.118 217.795 -85.5818 196.28 -67.5859C169.305 -42.0873 159.687 -5.03821 144.517 27.708C138.801 41.1547 137.379 55.586 135.309 69.8441C130.195 100.211 141.49 131.562 127.716 160.543C114.15 195.66 81.0668 223.684 86.6642 264.306C88.3052 279.403 88.4054 294.819 94.4952 308.913C105.927 331.759 118.608 354.121 128.864 377.605C127.952 377.605 127.041 377.605 126.129 377.605L126.147 377.605Z" fill="#B8DF00"/>
<path d="M275.657 -351.708C276.277 -341.871 276.997 -332.044 277.489 -322.207C284.29 -270.891 195.241 -244.617 225.844 -192.48C245.272 -164.147 274.007 -138.283 272.493 -101.216C272.074 -77.258 260.104 -55.3695 251.535 -33.4627C245.536 -14.847 242.628 4.9812 230.147 20.7982C214.267 44.6285 192.879 70.6559 198.869 101.187C200.483 113.038 203.445 124.753 204.412 136.64C206.891 178.12 171.52 206.937 146.969 235.745C113.375 279.422 143.979 332.552 158.055 377.615C157.143 377.615 156.231 377.615 155.32 377.615C143.441 332.224 109.993 283.415 141.034 238.352C165.129 207.393 203.883 180.381 201.504 136.795C197.948 103.293 184.757 82.7989 205.615 50.6362C213.045 38.1011 221.286 26.0401 228.424 13.3501C240.522 -8.48374 245.18 -33.3989 256.457 -55.643C271.901 -85.6907 275.401 -121.436 254.051 -149.569C237.805 -175.67 201.267 -202.208 222.69 -235.583C253.039 -284.055 282.129 -285.049 272.019 -351.699L275.666 -351.699L275.657 -351.708Z" fill="#B8DF00"/>
<path d="M721.449 377.605C734.349 344.731 717.274 333.072 691.165 317.647C673.716 307.181 664.608 296.588 664.909 275.501C664.025 235.973 659.002 222.945 634.023 192.624C619.291 174.51 641.544 163.561 655.519 155.702C671.373 146.659 682.112 133.194 688.685 116.484C696.999 95.3427 709.279 76.6358 722.771 58.5944C737.248 40.0243 754.186 21.8097 746.301 -3.44282C742.928 -18.3299 738.606 -33.5088 742.408 -48.7514C747.267 -73.384 750.348 -99.2382 766.038 -119.777C778.363 -137.354 785.374 -156.881 787.753 -178.04C795.456 -236.513 813.945 -292.816 818.995 -351.708L821.73 -351.708C817.856 -290.646 794.445 -232.438 788.993 -171.376C785.893 -151.913 779.211 -133.762 767.743 -117.608C755.764 -100.733 751.269 -81.297 747.96 -61.405C744.532 -45.0957 741.606 -28.0572 747.677 -11.994C766.047 35.302 714.484 62.2227 698.686 101.469C694.547 110.257 690.946 119.301 686.843 128.098C675.101 160.261 623.557 166.369 638.353 189.853C672.859 237.586 664.08 234.842 671.783 289.696C673.078 298.055 678.238 304.355 685.193 308.995C713.153 327.201 741.059 338.587 726.008 377.596C724.485 377.596 722.972 377.596 721.449 377.596L721.449 377.605Z" fill="#B8DF00"/>
<path d="M870.047 377.605C876.438 361.615 874.496 345.652 869.382 329.908C859.263 303.334 867.713 275.957 864.012 248.745C855.16 217.922 808.311 225.015 805.312 164.053C800.261 113.968 837.702 98.9164 830.901 61.9675C817.993 -4.92875 803.324 -19.5333 840.045 -83.7493C860.138 -117.179 845.077 -155.113 842.06 -190.967C840.483 -222.838 856.619 -253.041 866.857 -282.505C879.346 -308.031 904.89 -325.353 916.532 -351.708L920.179 -351.708C902.447 -316.838 872.076 -289.605 860.325 -254.436C851.2 -227.123 839.89 -199.737 847.639 -170.866C852.234 -142.851 859.764 -112.43 844.275 -86.4022C809.195 -23.745 818.704 -5.43016 833.882 60.1716C842.361 104.496 794.171 119.884 810.699 180.818C819.205 224.194 871.305 217.776 870.895 258.6C871.287 282.047 867.23 305.95 874.542 328.705C878.744 344.832 883.221 361.816 875.508 377.605L870.038 377.605L870.047 377.605Z" fill="#B8DF00"/>
<path d="M849.079 -351.708C837.629 -320.119 824.009 -289.506 818.64 -256.086C810.681 -227.396 804.664 -198.379 801.756 -168.696C799.322 -148.676 796.022 -129.076 785.155 -111.481C774.27 -93.85 769.794 -74.0856 765.992 -53.9474C760.13 -28.0932 771.736 -4.74612 775.163 20.2784C780.123 66.8998 719.909 84.9139 718.304 129.603C717.292 143.049 711.75 154.7 704.639 165.84C694.702 179.688 704.766 190.865 712.196 202.871C721.832 222.891 707.374 243.886 711.093 265.082C711.385 312.797 782.101 330.565 762.473 377.596C760.951 377.596 759.438 377.596 757.915 377.596C762.045 364.204 764.242 349.873 754.004 338.815C735.753 314.948 707.483 295.941 706.553 263.167C704.092 240.64 718.578 214.85 700.09 196.389C686.907 182.359 696.069 168.429 705.377 155.274C710.255 147.389 712.834 138.71 714.029 129.575C716.053 93.4559 751.898 77.1831 766.485 46.9804C785.146 10.9524 751.634 -17.2721 764.534 -60.2651C767.879 -78.2882 772.474 -95.7097 782.201 -111.6C793.889 -130.68 798.447 -151.976 799.86 -174.065C801.346 -197.221 806.834 -219.574 813.079 -241.837C819.98 -279.588 833.581 -315.333 845.433 -351.726L849.079 -351.726L849.079 -351.708Z" fill="#B8DF00"/>
<path d="M1358.69 -351.708C1363.04 -319.062 1331.28 -296.207 1339.96 -263.169C1342.42 -249.869 1346.18 -237.215 1352.22 -225.218C1373.34 -186.099 1339.52 -148.667 1343.94 -108.154C1349.74 -70.1475 1259.18 -7.00717 1291.44 1.78106C1316.08 9.08331 1344.06 11.1345 1361.6 32.2025C1393.99 75.6879 1389.63 91.0399 1449.86 103.201C1449.86 104.414 1449.86 105.635 1449.86 106.848C1439.14 103.539 1428.33 100.457 1417.71 96.8562C1356.89 72.1233 1387.25 11.6268 1290.82 10.2593C1280.75 10.9795 1251.13 -3.72528 1268.11 -13.6439C1295.9 -27.6923 1312.18 -55.7071 1331.33 -79.0724C1337.99 -88.125 1340.27 -99.2288 1340.44 -110.561C1338.64 -132.887 1343.64 -151.083 1351.72 -171.713C1357.83 -189.563 1357.09 -206.958 1347.94 -223.65C1335.89 -249.249 1326.21 -282.569 1342.98 -307.995C1351.16 -321.059 1357.38 -336.101 1355.06 -351.708L1358.71 -351.708L1358.69 -351.708Z" fill="#B8DF00"/>
<path d="M837.228 377.605C843.929 352.426 834.511 324.985 813.37 312.049C806.952 308.12 799.796 305.175 792.676 302.641C767.606 293.743 761.115 268.746 766.074 247.578C768.007 239.337 773.24 232.764 778.974 226.929C798.994 206.709 782.949 178.922 785.082 154.417C784.28 79.0881 830.664 97.485 800.635 -1.30046C778.026 -63.0824 838.641 -84.9071 830.363 -141.392C823.161 -195.881 829.771 -216.949 846.007 -268.074C854.449 -300.501 883.257 -321.46 895.582 -351.708L899.229 -351.708C885.472 -318.98 853.437 -297.484 846.417 -261.173C838.86 -231.454 825.131 -202.436 830.473 -171.066C830.883 -144.364 840.483 -114.381 824.037 -90.7234C785.848 -36.4807 800.252 -20.7184 812.012 37.5628C822.195 87.5208 790.361 98.1414 788.774 142.456C786.997 161.792 789.905 180.554 793.068 199.434C794.837 210.036 792.229 219.609 784.544 227.54C760.322 247.541 763.896 286.906 795.055 298.675C801.993 301.319 809.304 303.534 815.513 307.436C839.999 322.241 845.597 351.14 841.804 377.605L837.246 377.605L837.228 377.605Z" fill="#B8DF00"/>
<path d="M802.586 377.606C804.573 365.517 806.67 350.949 795.867 342.307C756.11 314.119 720.72 282.877 741.497 230.84C749.255 214.704 753.995 198.167 749.419 180.335C747.049 164.108 751.342 147.006 750.394 130.697C748.297 77.5023 808.375 79.6994 786.614 7.5429C770.377 -30.819 779.375 -73.1922 801.601 -107.242C807.737 -117.17 810.007 -128.374 810.708 -139.833C811.812 -157.838 812.021 -175.916 813.699 -193.866C817.336 -220.395 826.416 -246.085 832.533 -272.14C839.216 -301.914 860.165 -324.495 872.782 -351.699L876.429 -351.699C871.798 -337.386 862.481 -325.854 853.92 -313.893C844.129 -300.209 838.094 -284.921 833.864 -268.794C820.308 -225.117 812.121 -180.419 812.851 -134.573C812.167 -120.506 806.67 -108.017 799.158 -96.4025C781.49 -67.467 774.27 -31.2019 787.152 0.742033C796.532 27.909 797.216 60.3908 776.385 82.7169C768.417 93.0914 756.52 103.174 755.39 116.922C754.925 133.559 755.627 150.197 753.603 166.843C753.202 182.888 759.976 199.699 752.108 215.224C733.556 248.754 733.529 290.991 766.813 315.368C789.586 332.37 817.537 343.665 807.144 377.615C805.621 377.615 804.108 377.615 802.586 377.615L802.586 377.606Z" fill="#B8DF00"/>
<path d="M78.7419 -351.708C83.5098 -309.864 150.753 -293.263 155.11 -240.196C156.66 -184.376 241.306 -135.458 195.769 -92.6469C186.015 -82.6918 174.902 -73.8398 168.183 -61.3047C155.666 -36.3713 143.386 -11.2829 129.912 13.1764C107.13 51.9303 107.477 99.1716 88.542 139.539C78.2131 161.82 78.1129 186.826 70.5098 209.909C64.6936 228.278 62.934 246.566 67.4649 265.455C71.4579 282.102 74.3843 299.022 78.8149 315.541C85.9986 337.247 101.825 355.835 108.817 377.605C107.905 377.605 106.994 377.605 106.082 377.605C96.9929 352.025 78.2314 331.048 72.4334 304.245C68.413 284.025 64.3927 263.759 61.7125 243.339C60.6823 235.498 62.4144 226.92 64.5203 219.125C73.5911 188.667 74.4936 157.243 88.8702 128.454C102.472 93.3006 106.191 54.9843 122.592 20.9436C129.502 8.63646 136.722 -3.5066 143.231 -16.0234C155.247 -38.0122 162.212 -63.3285 180.581 -81.2423C186.808 -87.4506 193.126 -93.6406 198.705 -100.414C230.831 -135.795 156.578 -186.364 153.314 -234.125C149.33 -290.491 84.6402 -301.951 74.1655 -351.717L78.7237 -351.717L78.7419 -351.708Z" fill="#B8DF00"/>
<path d="M-8.77564 -293.363C31.3093 -292.588 60.6003 -258.493 79.2889 -226.366C93.7202 -191.013 163.561 -154.219 149.376 -113.861C137.415 -87.6693 124.069 -62.0704 111.506 -36.1525C97.9229 -3.59773 59.6887 11.1891 54.2006 47.9739C49.1319 72.6793 35.6031 91.8968 9.30226 77.5384C0.751055 73.3631 -3.8984 66.2249 -6.16839 57.2361C-10.9636 42.7137 -8.04636 27.1155 -8.78479 12.0369C-4.53654 17.598 -4.29945 24.1891 -4.2721 30.7074C-4.2174 41.9114 -3.24199 52.9514 2.18228 62.9704C9.43895 77.8119 35.1564 84.5763 42.8597 67.0728C54.474 40.9451 55.2216 18.5643 80.3373 0.0397428C112.035 -26.8628 122.164 -69.4365 142.502 -104.343C150.379 -119.65 149.604 -133.689 139.922 -148.038C122.546 -177.193 90.1375 -193.219 75.606 -224.106C60.0534 -250.999 25.1192 -292.114 -8.78477 -288.805L-8.78477 -293.363L-8.77564 -293.363Z" fill="#B8DF00"/>
<path d="M-8.7754 119.611C2.79334 124.543 14.1524 130.067 25.9855 134.261C71.8137 144.417 83.0725 83.1725 91.6328 50.4901C95.7352 33.88 104.724 19.8407 114.57 6.30286C139.148 -24.383 146.231 -65.0513 173.179 -93.9048C188.996 -109.266 194.685 -130.899 181.074 -149.223C166.223 -174.302 144.937 -196.073 136.021 -224.27C128.217 -252.74 105.873 -272.505 86.4183 -293.336C75.3054 -304.713 62.4422 -313.729 48.2661 -321.004C36.3874 -328.388 17.5437 -334.56 19.4855 -351.708L25.867 -351.708C23.0318 -331.862 56.1609 -324.167 68.386 -312.425C78.8425 -304.521 88.2325 -295.141 97.6315 -285.933C111.844 -270.426 129.329 -255.648 135.291 -234.772C144.399 -198.488 172.933 -173.473 188.148 -140.298C200.984 -116.067 178.421 -97.3417 164.683 -79.8382C144.873 -51.3767 136.641 -16.397 114.415 10.7426C83.5466 48.0013 94.8145 109.51 50.7184 136.914C30.3796 149.64 10.1503 130.186 -8.76627 123.257L-8.76627 119.611L-8.7754 119.611Z" fill="#B8DF00"/>
<path d="M1378.74 -351.708C1377.09 -314.704 1370.24 -277.436 1378.64 -240.798C1386.86 -205.353 1388.11 -191.268 1377.57 -155.924C1373.87 -142.45 1372.4 -128.711 1373.46 -114.9C1376.93 -85.9917 1357.45 -66.3093 1342.34 -44.4846C1316.48 -7.92779 1377.13 5.62832 1394.08 47.263C1407.87 74.7308 1421.21 78.6964 1449.85 84.066C1449.85 84.9776 1449.85 85.8893 1449.85 86.8009C1427.67 85.2055 1404.6 75.7062 1394.98 54.3465C1376.14 8.15358 1316.76 -6.77 1334.4 -37.4741C1345.92 -60.4657 1369.5 -78.3977 1369.57 -105.947C1364.52 -148.858 1392.36 -189.427 1377.26 -231.636C1364.5 -270.991 1374.15 -311.514 1376.01 -351.699L1378.74 -351.699L1378.74 -351.708Z" fill="#B8DF00"/>
<path d="M-8.77566 94.9962C78.8331 136.449 54.62 53.3889 92.836 10.013C120.969 -19.4057 131.964 -58.9254 153.478 -92.7017C165.011 -109.512 176.853 -127.663 162.659 -146.625C146.012 -171.65 125.491 -194.459 111.142 -220.942C97.7953 -246.797 78.423 -268.895 57.1452 -288.349C37.8002 -303.227 13.122 -308.661 -8.75738 -318.889L-8.75738 -322.536C22.4937 -307.33 59.871 -299.635 80.8388 -269.624C92.8725 -255.858 104.532 -241.39 112.728 -224.99C127.378 -194.833 152.302 -171.805 167.846 -142.204C181.612 -119.768 159.422 -100.314 149.157 -81.7529C142.685 -70.1021 136.978 -57.9955 131.48 -45.8433C121.352 -21.8033 105.599 -1.41903 89.2532 18.6462C56.7076 68.3398 79.1157 134.908 -8.76654 98.661L-8.76654 95.0144L-8.77566 94.9962Z" fill="#B8DF00"/>
<path d="M1449.85 68.5591C1411.25 61.7309 1397.98 20.005 1377.16 -8.11913C1355.78 -40.6647 1401.74 -56.9831 1399.72 -96.0835C1400.5 -110.907 1401.13 -125.748 1402.52 -140.517C1417.75 -191.478 1410.69 -191.751 1400.29 -241.973C1398.83 -278.439 1399.62 -315.178 1400.62 -351.699L1405.18 -351.699C1403.07 -334.305 1404.23 -316.537 1403.37 -299.015C1402.37 -269.113 1400.32 -238.947 1410.51 -210.267C1415.23 -194.687 1419.41 -177.776 1412.83 -162.159C1393.69 -115.073 1417.47 -84.2685 1381.67 -42.1781C1373.92 -30.819 1374.46 -19.4053 1381.56 -8.03708C1401.08 18.6467 1412.47 59.78 1449.85 64.9125L1449.85 68.5591Z" fill="#B8DF00"/>
<path d="M1449.85 -24.4289C1444.55 -19.2872 1439.5 -13.8538 1433.9 -9.07683C1413.72 7.54239 1428.53 37.6083 1449.85 43.9443L1449.85 47.5908C1430.1 40.9358 1418.24 23.1588 1419.8 2.37338C1420.04 -16.1876 1452.23 -21.3202 1439.61 -41.2122C1418.68 -85.8553 1418.25 -120.926 1449.86 -160.273C1449.86 -157.237 1449.86 -154.192 1449.86 -151.156C1418.65 -119.24 1424.72 -72.8553 1449.86 -39.0243C1449.86 -34.1652 1449.86 -29.2971 1449.86 -24.438L1449.85 -24.4289Z" fill="#B8DF00"/>
<path d="M645.783 377.606C635.035 343.702 603.2 326.171 569.907 322.105C552.768 320.965 550.042 343.364 540.58 353.502C524.225 374.506 516.713 379.584 489.892 377.606C556.907 368.954 529.512 306.188 568.166 312.624C583.5 316.088 596.728 324.284 610.302 331.641C629.456 340.921 641.817 358.151 649.43 377.606C648.217 377.606 646.996 377.606 645.783 377.606Z" fill="#B8DF00"/>
<path d="M86.0351 377.605C74.6213 350.438 59.1873 325.268 52.195 296.396C45.695 270.569 23.5785 229.172 -8.77565 250.887L-8.77564 236.301C-0.178861 229.792 10.8794 218.405 19.7223 230.758C35.1928 248.963 48.1108 268.737 54.1733 292.221C60.5548 322.779 77.4383 348.861 88.77 377.605C87.8584 377.605 86.9467 377.605 86.0351 377.605Z" fill="#B8DF00"/>
<path d="M1449.85 355.726C1434.7 352.79 1419.82 348.743 1404.89 344.95C1391.41 341.987 1378.65 345.178 1366.42 350.666C1347.81 359.701 1328 366.848 1310.37 377.605C1307.94 377.605 1305.51 377.605 1303.08 377.605C1321.86 365.17 1343.68 357.996 1363.76 347.831C1382.52 339.116 1401.53 339.116 1420.85 345.835C1430.35 348.779 1439.81 352.59 1449.85 352.982C1449.85 353.893 1449.85 354.805 1449.85 355.717L1449.85 355.726Z" fill="#B8DF00"/>
<path d="M61.4208 377.605C55.4131 361.342 47.3724 346.181 38.5295 331.312C28.3921 311.894 12.2651 305.148 -8.7756 308.32L-8.7756 303.762C6.27561 301.319 25.5659 303.252 34.1627 317.464C45.9958 336.7 57.7651 356.018 65.0674 377.605C63.8549 377.605 62.6333 377.605 61.4208 377.605Z" fill="#B8DF00"/>
<path d="M1449.85 373.047C1421.85 368.735 1392.27 360.43 1366.89 377.605C1364.46 377.605 1362.03 377.605 1359.6 377.605C1393.04 355.261 1414.09 365.663 1449.85 370.312C1449.85 371.224 1449.85 372.135 1449.85 373.047Z" fill="#B8DF00"/>
<path d="M33.1601 377.605C25.3017 359.482 9.23857 347.448 -8.77547 340.228L-8.77547 335.67C11.1439 343.674 30.7624 355.972 37.7183 377.605C36.1958 377.605 34.6825 377.605 33.1601 377.605Z" fill="#B8DF00"/>
<path d="M620.257 377.605C606.947 357.504 590.756 364.013 577.41 377.605C575.286 377.605 573.153 377.605 571.029 377.605C588.477 357.649 609.545 351.423 624.815 377.605C623.293 377.605 621.78 377.605 620.257 377.605Z" fill="#B8DF00"/>
<path d="M1449.85 228.096C1423.76 220.52 1438.49 197.602 1449.85 183.426C1452.08 198.021 1428.09 211.769 1449.85 222.626L1449.85 228.096Z" fill="#B8DF00"/>
<path d="M328.532 377.605C338.861 373.831 349.199 374.059 359.528 377.605L328.532 377.605Z" fill="#B8DF00"/>
<path d="M1043.96 -250.005C1039.87 -205.991 1060.46 -197.695 1091.99 -174.184C1117.1 -155.04 1127.95 -193.174 1140.86 -208.58C1150.2 -220.714 1169.8 -240.114 1186.21 -233.14C1202.32 -225.373 1216.14 -214.561 1227.67 -201.041C1243.11 -183.082 1227.77 -159.634 1220.11 -141.529C1200.4 -106.878 1226.64 -71.8067 1237.58 -38.8509C1253.65 -2.31227 1255.65 -7.75476 1212.1 6.22982C1191.83 10.0769 1170.62 15.6926 1150.08 10.5419C1115.7 1.18842 1079.42 10.7242 1045.63 -1.76531C1015.34 -13.8719 984.658 -24.1188 952.687 -11.529C940.161 -7.74568 917.47 -0.944845 916.586 -20.8551C913.66 -41.9414 913.742 -62.7542 916.568 -83.8131C918.163 -109.303 912.812 -134.61 916.094 -160.026C917.717 -174.394 916.677 -188.488 909.576 -201.67C896.694 -219.165 900.259 -247.371 923.77 -253.151C955.933 -264.947 981.732 -229.712 1002.05 -259.878C1006.45 -266.461 1010.61 -273.079 1018.4 -276.461C1040.29 -283.937 1044.48 -267.336 1044.49 -250.033C1044.32 -250.033 1044.13 -250.014 1043.96 -250.005ZM938.165 -248.647C916.203 -252.057 898.554 -231.08 909.849 -211.169C919.23 -193.629 921.181 -175.251 918.82 -155.596C915.538 -128.529 923.433 -101.116 919.485 -74.0312C916.768 -57.0564 919.905 -40.4463 922.949 -23.9C925.502 -7.64541 945.02 -14.8656 955.887 -17.1629C1005.23 -35.651 1048.3 7.87077 1097.62 2.52855C1125.22 -1.48267 1151.01 10.6422 1178.46 8.55449C1199.54 4.42476 1246.88 3.57693 1236.02 -28.7408C1231.95 -41.7772 1227.25 -54.6132 1222.73 -67.5038C1213.72 -91.7534 1201.75 -117.653 1216.05 -142.568C1223.92 -160.801 1237.37 -184.03 1221.11 -201.579C1207.5 -215.782 1186.58 -232.93 1166.13 -222.656C1130.49 -208.854 1126.56 -150.946 1100.55 -163.646C1090.22 -168.723 1081.35 -176.454 1072.08 -183.191C1050.34 -197.869 1032.38 -218.608 1034.02 -246.395C1034.53 -254.837 1031.4 -274.392 1019.73 -263.771C1013.17 -256.086 1009.31 -245.867 998.944 -242.22C987.047 -237.68 975.36 -238.765 963.873 -243.323C960.145 -244.802 951.307 -246.886 945.709 -247.77L938.165 -248.647Z" fill="#B8DF00"/>
<path d="M909.968 162.813C908.327 173.853 908.937 191.886 893.348 190.7C880.676 190.318 869.427 185.386 860.593 176.761C836.125 156.459 867.348 99.117 895.764 122.956C906.449 133.604 909.585 148.236 909.238 162.722C909.484 162.759 909.721 162.795 909.968 162.822L909.968 162.813ZM905.765 163.953C905.154 152.038 904.689 141.627 898.463 132.738C872.599 97.0475 836.07 162.102 870.63 179.414C890.313 190.4 905.163 189.725 905.765 163.962L905.765 163.953Z" fill="#B8DF00"/>
<path d="M438.011 308.393C476.902 309.041 478.816 348.068 443.28 357.257C427.117 360.731 399.075 366.666 389.749 348.67C386.212 340.018 390.569 332.67 395.984 326.161C406.878 313.088 421.365 308.612 438.011 308.393ZM431.584 315.121C410.324 310.208 374.57 346.081 407.161 355.133C424.692 358.999 462.917 353.611 459.544 329.215C457.201 315.96 442.123 316.334 431.584 315.121Z" fill="#B8DF00"/>
<path d="M306.361 259.748C314.566 231.97 337.758 253.367 323.445 270.888C303.151 292.676 303.6 272.54 306.361 259.748Z" fill="#B8DF00"/>
<path d="M1084.62 364.031C1055.18 363.885 1024.92 352.335 1022.33 319.105C1020.54 307.764 1023.41 297.408 1029.54 287.909C1042.06 264.006 1068.48 225.544 1037.18 205.861C994.577 183.335 992.098 162.768 987.813 117.66C985.716 92.7447 1016.04 95.4158 1033.09 96.0722C1085 99.4452 1087.76 103.256 1123.64 139.375C1141.52 156.888 1160.87 173.051 1173.89 194.776C1197.02 227.832 1248.93 280.26 1202.99 315.997C1176.52 333.992 1143.12 336.964 1116.5 354.924C1106.75 360.558 1096.3 363.922 1084.63 364.04L1084.62 364.031ZM1024.34 98.2236C1009.05 98.6703 989.499 101.341 991.587 120.231C993.055 134.79 995.981 149.285 999.281 163.57C1003.48 183.964 1023.62 192.424 1039.43 202.78C1074.47 223.811 1045.44 265.592 1031.84 291.847C1018.72 311.429 1025.9 344.048 1048.84 352.681C1074.22 361.588 1099.29 364.678 1122.39 348.342C1155.49 326.699 1229.93 325.414 1216.6 269.904C1209.82 240.886 1186.09 220.83 1170.72 196.371C1163.93 186.252 1157.32 176.215 1148.44 167.718C1121.7 146.003 1100.57 108.388 1064.86 102.244C1051.01 100.63 1037.11 99.4817 1024.34 98.2327L1024.34 98.2236Z" fill="#B8DF00"/>
<path d="M1198.41 280.397C1198.21 302.04 1179.96 310.208 1163.01 315.231C1144.28 319.233 1127.13 327.292 1109.65 334.695C1093.53 341.523 1077.67 340.292 1062.83 330.319C1044.91 318.823 1055.87 298.885 1063.73 284.609C1089.65 228.826 1109.37 216.801 1049.37 174.437C1035.84 167.718 1025.64 135.565 1047.16 134.343C1080.69 131.772 1102.81 148.291 1125.09 171.328C1135.54 181.593 1137.96 196.59 1141.11 210.401C1148.71 238.38 1194.04 241.342 1198.4 280.388L1198.41 280.397ZM1194.7 280.607C1193.28 259.238 1171 244.834 1153.1 235.873C1139.98 229.555 1133.65 219.964 1133.3 205.46C1133.52 178.558 1111.3 157.827 1088.07 148.063C1075.11 140.725 1040.42 147.334 1053.57 167.235C1070.48 188.923 1110.42 211.021 1089.98 242.509C1084.12 251.872 1079.32 261.918 1074.36 271.81C1069.25 281.974 1063.91 292.094 1059.76 302.65C1048.3 332.725 1092.85 342.07 1112.73 330.036C1127.32 323.655 1141.63 316.744 1157.5 313.627C1174.28 309.05 1194.14 302.395 1194.69 280.616L1194.7 280.607Z" fill="#B8DF00"/>
</g>
</svg>