<svg xmlns="http://www.w3.org/2000/svg" width="146" height="50" viewBox="0 0 146 50" fill="none">
<path d="M35.2503 15.3068C35.3144 13.7676 35.0841 12.2627 34.5642 10.8321C33.5633 8.07592 31.5856 5.89319 28.9953 4.68529C23.4551 2.10188 16.7413 4.73158 14.0295 10.547L4.88451 30.1585C3.50561 33.4474 3.37793 36.6896 4.51487 39.5337C5.53064 42.0742 7.49392 44.1277 10.0422 45.316C12.5905 46.5043 15.4283 46.6895 18.0286 45.8342C20.9391 44.8774 23.3406 42.6956 24.9716 39.5252L24.9758 39.5161L24.9801 39.5069L34.1165 19.9138C34.8012 18.4503 35.1823 16.8998 35.249 15.3073L35.2503 15.3068Z" fill="#254D32"/>
<path d="M14.0701 14.1305C14.0634 18.9758 17.7497 26.12 22.3939 27.9716C27.5164 29.6142 30.0045 23.1777 32.4553 19.8729C29.5217 26.164 26.5881 32.4574 23.6482 38.7455C21.0879 44.2719 13.421 46.5931 8.77434 42.2894C14.1525 45.853 20.7382 41.2559 21.7264 35.4853C22.3829 32.5253 18.7008 30.7883 17.1307 28.7177C14.2272 25.5999 11.3994 20.3426 13.1476 16.0777C13.5072 15.4593 13.7664 14.7817 14.0701 14.1305ZM33.5547 13.0996C33.7831 15.8575 32.0714 18.1506 30.0649 19.8385C28.1665 21.7271 25.2005 22.2538 23.6775 19.6405C22.2425 17.3233 22.3248 14.5199 22.5759 11.911C22.9503 8.88965 19.8844 7.23285 18.3974 7.52271C17.6968 7.65925 16.6969 8.88893 16.3532 9.51373C16.0921 9.98772 15.7593 10.9138 16.1827 11.6703C17.0866 12.9748 17.5412 14.474 18.0735 15.9427C19.961 22.1802 23.9174 28.5205 29.9866 21.6304C32.0896 19.2982 34.3099 16.4306 33.6403 13.0928L33.5561 13.0992L33.5547 13.0996ZM5.96938 37.3245C7.14076 41.1813 11.8893 43.3322 15.3001 40.8392C17.7024 39.3459 18.2801 36.0319 16.7894 33.6931C13.8628 29.314 10.7766 25.6901 11.3476 20.0189C10.7688 21.0597 10.3322 22.1823 9.80704 23.2559C9.4886 26.3746 10.5515 29.5494 11.925 32.3257C12.7436 34.1617 14.068 35.9352 13.8791 38.043C13.6748 40.0501 11.4836 41.0428 9.66545 40.5647C7.95319 40.1794 6.81253 38.7856 6.05119 37.2947C6.02345 37.3041 5.99663 37.3138 5.96889 37.3232L5.96938 37.3245ZM21.5784 5.72775C26.3172 6.34732 26.1145 10.6747 25.9944 14.4115C25.9514 16.1252 26.9901 18.5783 29.083 18.0588C33.0175 17.0862 34.4526 12.0028 31.8417 8.98354C32.6338 10.7092 33.067 12.4524 31.8302 14.1161C31.2108 15.1435 29.5206 15.3175 29.0991 14.0531C28.1163 11.3298 28.3012 7.86933 25.7083 6.00546C24.561 4.83129 22.9902 5.39163 21.5737 5.63757C21.575 5.66824 21.5776 5.69842 21.5789 5.72909L21.5784 5.72775ZM6.98085 29.4289C6.00816 31.3739 5.81261 33.7682 6.85949 35.7285C8.54502 38.7215 11.3144 37.6255 9.97386 34.2365C9.32608 32.2251 8.71328 30.2056 8.24474 28.1441C7.85701 27.2562 7.16543 29.1119 6.94603 29.4104C6.95792 29.416 6.97073 29.422 6.98262 29.4275L6.98085 29.4289Z" fill="#C2E812"/>
<path d="M58.9518 37.2355L57.8327 35.0404C57.015 36.224 55.7453 37.2785 53.378 37.2785C49.117 37.2785 46.2118 33.9214 46.2118 29.5097C46.2118 24.4524 49.6335 21.0522 53.873 21.0522C55.2288 21.0522 56.0681 21.2459 57.2732 22.1928L58.1555 21.1168H58.8657L59.7695 27.121L59.0163 27.207C57.7682 24.1081 56.4124 21.9776 53.916 21.9776C51.4412 21.9776 49.8702 24.5816 49.8702 29.4021C49.8702 34.7176 51.4412 36.2455 53.6148 36.2455C55.6592 36.2455 56.6922 34.6961 56.6922 32.5871V31.6832C56.6922 31.2313 56.4985 30.8655 55.9174 30.844L54.1958 30.7794V29.7679H61.1468V30.7794L59.5543 30.8655V31.5111C59.5543 33.5555 59.5974 34.9543 59.748 37.2355H58.9518Z" fill="#254D32"/>
<path d="M62.261 36.8911V36.0088L63.789 35.9227V29.4236C63.789 28.735 63.5522 28.4337 62.6269 28.4337H61.8091V27.5514C63.0142 27.5298 64.1333 27.0349 64.9726 26.4969H65.984L66.0916 29.9186L66.1992 29.9401C66.8448 27.6374 67.9639 26.4108 69.5564 26.4108C70.6754 26.4108 71.3641 27.4007 71.3641 28.3261C71.3641 29.316 70.74 30.1983 69.8577 30.1983C68.9969 30.1983 68.4373 29.4882 68.4373 28.7565C68.4373 28.1109 68.8032 27.9387 68.8032 27.7235C68.8032 27.659 68.7386 27.6159 68.674 27.6159C67.5765 27.6159 66.3068 30.9085 66.3068 33.6846V35.191C66.3068 35.7506 66.5435 35.9227 67.0385 35.9443L68.8462 36.0088V36.8911H62.261Z" fill="#254D32"/>
<path d="M72.7215 31.92C72.7215 28.6704 75.1748 26.3677 77.8649 26.3677C80.9207 26.3677 82.4917 28.6489 82.4917 31.1668L75.8204 32.4149C75.8204 34.1796 76.3369 36.0303 78.6396 36.0303C79.9523 36.0303 81.179 35.148 81.7816 33.4909L82.5348 33.8353C82.0183 35.5354 80.2751 37.2785 77.9725 37.2785C74.9381 37.2785 72.7215 35.1265 72.7215 31.92ZM79.07 30.9085C79.5004 30.8224 79.7587 30.5857 79.7587 30.1983C79.7587 28.735 79.4359 27.207 78.037 27.207C76.2724 27.207 75.8204 29.1869 75.8204 31.5111L79.07 30.9085Z" fill="#254D32"/>
<path d="M84.1273 31.92C84.1273 28.6704 86.5806 26.3677 89.2706 26.3677C92.3265 26.3677 93.8975 28.6489 93.8975 31.1668L87.2262 32.4149C87.2262 34.1796 87.7427 36.0303 90.0453 36.0303C91.3581 36.0303 92.5847 35.148 93.1873 33.4909L93.9405 33.8353C93.424 35.5354 91.6809 37.2785 89.3782 37.2785C86.3438 37.2785 84.1273 35.1265 84.1273 31.92ZM90.4757 30.9085C90.9061 30.8224 91.1644 30.5857 91.1644 30.1983C91.1644 28.735 90.8416 27.207 89.4428 27.207C87.6781 27.207 87.2262 29.1869 87.2262 31.5111L90.4757 30.9085Z" fill="#254D32"/>
<path d="M102.398 36.8911V36.0088L103.56 35.9227V30.8009C103.56 29.3375 103.087 28.3046 101.774 28.3046C100.569 28.3046 99.794 29.4451 99.794 31.3604V35.2771C99.794 35.8367 99.9662 35.9227 100.461 35.9443L101.559 36.0088V36.8911H95.7912V36.0088L97.0394 35.9227V29.4236C97.0394 28.735 96.8027 28.4337 95.8773 28.4337H95.0595V27.5514C96.2647 27.5298 97.8357 27.0349 98.6749 26.4969H99.6649L99.751 28.8426C100.59 27.1855 101.903 26.4969 103.194 26.4969C105.174 26.4969 106.293 27.8526 106.293 30.0907V35.2341C106.293 35.7291 106.422 35.9227 106.96 35.9443L108.208 36.0088V36.8911H102.398Z" fill="#254D32"/>
<path d="M109.444 36.8911V35.8797L111.402 35.7936V23.1612C111.402 22.7093 111.165 22.4511 110.821 22.4295L108.863 22.365V21.3535H116.911C120.311 21.3535 123.066 22.5156 123.066 25.8082C123.066 28.735 120.828 30.306 116.717 30.306C116.093 30.306 115.168 30.2844 114.609 30.2414V35.0404C114.609 35.5999 114.931 35.7936 115.405 35.8151L117.385 35.8797V36.8911H109.444ZM119.58 25.7221C119.58 22.5371 117.707 22.2789 115.986 22.2789L114.609 22.3004V29.2299H115.835C118.202 29.2299 119.58 28.7995 119.58 25.7221Z" fill="#254D32"/>
<path d="M125.557 22.8815C125.557 21.8915 126.289 21.1168 127.236 21.1168C128.183 21.1168 128.957 21.8915 128.957 22.8815C128.957 23.8499 128.183 24.6246 127.236 24.6246C126.289 24.6246 125.557 23.8499 125.557 22.8815ZM124.632 36.8911V36.0088L125.987 35.9227V29.4236C125.987 28.735 125.751 28.4337 124.825 28.4337H124.008V27.5514C125.213 27.5298 126.784 27.0349 127.623 26.4969H128.742V35.2771C128.742 35.8367 128.914 35.9227 129.409 35.9443L130.787 36.0088V36.8911H124.632Z" fill="#254D32"/>
<path d="M131.834 36.8911V36.0088L133.211 35.9227V24.022C133.211 23.3334 132.974 23.0321 132.049 23.0321H131.231V22.1498C132.436 22.1283 134.007 21.6333 134.847 21.0953H135.901V35.2556C135.901 35.8151 136.073 35.9227 136.568 35.9443L137.989 36.0088V36.8911H131.834Z" fill="#254D32"/>
<path d="M138.994 36.8911V36.0088L140.372 35.9227V24.022C140.372 23.3334 140.135 23.0321 139.209 23.0321H138.392V22.1498C139.597 22.1283 141.168 21.6333 142.007 21.0953H143.062V35.2556C143.062 35.8151 143.234 35.9227 143.729 35.9443L145.149 36.0088V36.8911H138.994Z" fill="#254D32"/>
</svg>